<svg width="162" height="42" viewBox="0 0 162 42" xmlns="http://www.w3.org/2000/svg" xmlns:xlink="http://www.w3.org/1999/xlink">
    <defs>
        <path id="w83hn8o3oa" d="M0 0h18.121v25.48H0z"/>
    </defs>
    <g fill="none" fill-rule="evenodd">
        <path fill="#FFF" d="M35.138 32.895h5.05V8.147h-5.05z"/>
        <g transform="translate(42.652 15.85)">
            <mask id="e09svc4nfb" fill="#fff">
                <use xlink:href="#w83hn8o3oa"/>
            </mask>
            <path d="M13.071 10.213V6.136c-1.025-1.492-2.448-1.99-3.87-1.99C6.72 4.147 5 5.805 5 8.324c0 1.856 1.72 3.878 4.2 3.878 1.423 0 2.846-.497 3.871-1.988zm5.05-9.847v16.731c0 5.194-4.039 8.383-8.988 8.383-4.776 0-8.331-2.963-8.68-7.145l5.032.029c.209 1.777 1.768 2.545 3.826 2.545 1.948 0 3.76-1.04 3.76-3.76v-2.126c-1.29.837-2.928 1.325-4.775 1.325C3.695 16.348 0 12.618 0 8.33 0 3.346 3.695 0 8.296 0c1.847 0 3.486.488 4.775 1.325V.418l5.05-.052z" fill="#FFF" mask="url(#e09svc4nfb)"/>
        </g>
        <path d="M76.02 24.351c0-2.426-1.595-4.387-4.055-4.387-2.493 0-4.088 1.96-4.088 4.387 0 2.493 1.595 4.354 4.088 4.354 2.46 0 4.055-1.86 4.055-4.354m4.873.001c0 5.152-3.81 8.821-8.927 8.821-5.152 0-8.963-3.67-8.963-8.82 0-5.117 3.811-8.858 8.963-8.858 5.116 0 8.927 3.74 8.927 8.857M107.262 27.13v-5.097c-1.046-1.485-2.498-1.89-3.95-1.89-2.53 0-4.286 2.025-4.286 4.456 0 2.396 1.755 4.421 4.287 4.421 1.451 0 2.903-.405 3.949-1.89zm4.955-10.887V32.87l-4.955.025v-.941c-1.29.836-2.928 1.36-4.775 1.36-4.601 0-8.296-3.905-8.296-8.715 0-4.845 3.695-8.749 8.296-8.749 1.847 0 3.486.523 4.775 1.36v-.942l4.955-.025zM132.56 23.867v9.028h-4.865v-8.45c0-2.718-1.36-4.147-3.765-4.147-1.255 0-2.649.732-3.834 2.126v10.471h-4.976V16.27h4.976v1.254c1.36-1.08 2.928-1.673 4.81-1.673 4.427 0 7.654 3.137 7.654 8.017M157.766 8.78h-1.23v2.95h-.724V8.78h-1.23v-.671h3.184zM162 11.73h-.724V9.705l-.943 1.49h-.436v-.004l-.953-1.507.01 2.044h-.724V8.11h.512l1.373 2.193 1.374-2.193H162zM32.838 32.884H27.69l-3.345-12.439-7.188 12.439H11.41L22.52 13.63l-1.787-6.685L5.75 32.889H0L18.986 0h5.035l2.204 8.171h5.195l-3.547 6.167zM147.597 27.15v-5.136c-1.054-1.497-2.517-1.904-3.98-1.904-2.55 0-4.318 2.04-4.318 4.455 0 2.449 1.768 4.49 4.319 4.49 1.462 0 2.925-.409 3.979-1.905zm5.05-19.003v24.748h-5.05v-.941c-1.29.836-2.928 1.36-4.775 1.36-4.601 0-8.296-3.905-8.296-8.75 0-4.81 3.695-8.714 8.296-8.714 1.847 0 3.486.523 4.775 1.36V8.147h5.05zM93.29 20.457c-1.103.135-3.676.26-5.186 2.339v10.099h-4.98V16.294h4.98v1.245c1.134-.98 2.847-1.544 5.186-1.316" fill="#FFF"/>
    </g>
</svg>
