<svg width="162" height="37" viewBox="0 0 162 37" xmlns="http://www.w3.org/2000/svg" xmlns:xlink="http://www.w3.org/1999/xlink">
    <defs>
        <path id="k9jo5da3ga" d="M0 0h5.62v6.294H0z"/>
        <path id="u9lcs6m6oc" d="M0 36.172h162V0H0z"/>
    </defs>
    <g fill="none" fill-rule="evenodd">
        <path fill="#FFF" d="M46.77 7.196h17.988V.001H46.77zM11.692 23.386h7.196V0h-7.196zM23.385 34.179h7.195V0h-7.195zM0 34.179h7.195V0H0zM46.77 34.179h7.195V11.693H46.77zM35.077 7.196h7.196V.001h-7.196zM35.077 34.179h7.196V11.693h-7.196zM85.91.018l-1.461 5.946h-.023L83.011.018h-2.934V8.02h1.82V1.805h.023l1.63 6.215h1.764l1.585-6.215h.022V8.02h1.89V.018z"/>
        <g>
            <path d="m93.69 5.109-1.18.337c-.438.124-.843.292-.843.775 0 .472.394.675.82.675.686 0 1.202-.462 1.202-1.372V5.11h.001zm1.687 1.663c0 .415.011.877.157 1.247h-1.619a2.485 2.485 0 0 1-.112-.619h-.022c-.292.473-1.17.776-1.798.776-1.147 0-2.001-.63-2.001-1.777 0-1.439 1.158-1.944 3.068-2.213l.64-.09V3.6c0-.45-.359-.64-.83-.64-.563 0-.834.202-.923.798h-1.686c.056-1.72 1.653-1.877 2.462-1.877 1.63 0 2.653.382 2.664 1.73v3.16zM100.874 3.805c-.349-.416-1.102-.64-1.652-.64-.438 0-.754.157-.754.46 0 1.022 3.542.18 3.542 2.416 0 1.574-1.394 2.136-2.698 2.136s-2.045-.371-2.922-1.18l1.09-.945c.54.517 1.09.844 1.888.844.293 0 .955-.068.955-.607 0-.934-3.54-.192-3.54-2.316 0-1.506 1.314-2.09 2.529-2.09.922 0 1.832.325 2.642.865l-1.08 1.057zM107.125 3.805c-.348-.416-1.102-.64-1.652-.64-.438 0-.753.157-.753.46 0 1.022 3.54.18 3.54 2.416 0 1.574-1.393 2.136-2.697 2.136s-2.046-.371-2.923-1.18l1.091-.945c.54.517 1.09.844 1.89.844.29 0 .954-.068.954-.607 0-.934-3.54-.192-3.54-2.316 0-1.506 1.315-2.09 2.528-2.09.921 0 1.833.325 2.641.865l-1.08 1.057zM112.859 5.109l-1.18.337c-.438.124-.844.292-.844.775 0 .472.394.675.821.675.685 0 1.202-.462 1.202-1.372V5.11zm1.686 1.663c0 .415.012.877.157 1.247h-1.619a2.485 2.485 0 0 1-.112-.619h-.022c-.292.473-1.169.776-1.797.776-1.147 0-2.002-.63-2.002-1.777 0-1.439 1.158-1.944 3.068-2.213l.64-.09V3.6c0-.45-.358-.64-.83-.64-.563 0-.833.202-.922.798h-1.687c.056-1.72 1.653-1.877 2.462-1.877 1.63 0 2.653.382 2.664 1.73v3.16zM120.043 4.052c-.315-.675-.854-.82-1.123-.82-1.001 0-1.361.775-1.361 1.798 0 1.024.428 1.8 1.36 1.8.54 0 .967-.203 1.248-.878l1.259.64c-.54.956-1.518 1.585-2.664 1.585-1.787 0-3.023-1.135-3.023-3.147 0-1.977 1.315-3.147 2.967-3.147 1.136 0 2.113.416 2.686 1.462l-1.349.707zM122.417.017h1.753v2.586h.021c.338-.461 1.09-.72 1.642-.72 1.258 0 1.876.73 1.876 1.933V8.02h-1.753V4.434c0-.922-.495-1.135-.877-1.135-.404 0-.91.258-.91 1.37V8.02h-1.753V.017zM134.58 8.02h-1.753v-.528c-.45.528-1.192.685-1.732.685-1.415 0-1.81-.82-1.81-1.72V2.04h1.754V5.95c0 .528.191.81.853.81.506 0 .934-.28.934-.934V2.04h1.753v5.98zM140.032 3.805c-.35-.416-1.102-.64-1.652-.64-.438 0-.754.157-.754.46 0 1.022 3.542.18 3.542 2.416 0 1.574-1.394 2.136-2.699 2.136-1.303 0-2.044-.371-2.92-1.18l1.088-.945c.54.517 1.091.844 1.89.844.291 0 .954-.068.954-.607 0-.934-3.54-.192-3.54-2.316 0-1.506 1.314-2.09 2.528-2.09.922 0 1.833.325 2.643.865l-1.08 1.057zM146.092 4.31c-.056-.876-.685-1.145-1.19-1.145-.506 0-1.112.359-1.192 1.146h2.382zm-2.36 1.08c.012 1.146.742 1.506 1.304 1.506.652 0 .955-.337 1.462-1.057l1.314.685c-.606 1.125-1.562 1.653-2.9 1.653-1.855 0-2.934-1.281-2.934-2.968 0-2.113 1.113-3.327 2.934-3.327 2.181 0 2.922 1.664 2.934 3.507h-4.113zM152.028 3.232h-1.046v2.933c0 .473.238.597.552.597.191 0 .438-.023.528-.034V8.11c-.224.023-.743.067-1.124.067-1.495 0-1.709-.932-1.709-1.798V3.232h-.853v-1.08h.853V.422h1.753v1.73h1.046v1.08zM155.986 3.232h-1.046v2.933c0 .473.237.597.552.597.19 0 .437-.023.527-.034V8.11c-.224.023-.741.067-1.123.067-1.495 0-1.708-.932-1.708-1.798V3.232h-.854v-1.08h.854V.422h1.752v1.73h1.046v1.08z" fill="#FFF"/>
            <g transform="translate(156.38 1.882)">
                <mask id="6vjpm48fcb" fill="#fff">
                    <use xlink:href="#k9jo5da3ga"/>
                </mask>
                <path d="M4.484 1.922c-.35-.415-1.102-.64-1.653-.64-.438 0-.753.157-.753.46 0 1.023 3.542.18 3.542 2.417 0 1.574-1.395 2.135-2.699 2.135-1.303 0-2.044-.37-2.921-1.18l1.09-.944c.54.517 1.09.843 1.888.843.292 0 .955-.067.955-.607 0-.933-3.54-.191-3.54-2.316C.392.585 1.706 0 2.92 0c.922 0 1.832.326 2.643.865l-1.08 1.057z" fill="#FFF" mask="url(#6vjpm48fcb)"/>
            </g>
            <mask id="kkngiub1ld" fill="#fff">
                <use xlink:href="#u9lcs6m6oc"/>
            </mask>
            <path fill="#FFF" mask="url(#kkngiub1ld)" d="M80.122 21.107h2v-8.003h-2zM83.685 15.126h1.754v.528c.45-.528 1.191-.685 1.73-.685 1.416 0 1.81.82 1.81 1.72v4.418h-1.754v-3.744c0-.584-.179-.977-.853-.977-.708 0-.933.46-.933 1v3.72h-1.754v-5.98zM94.431 16.891c-.348-.416-1.101-.64-1.65-.64-.44 0-.755.157-.755.46 0 1.023 3.541.18 3.541 2.418 0 1.573-1.394 2.134-2.697 2.134-1.303 0-2.045-.37-2.923-1.18l1.09-.944c.54.516 1.092.843 1.89.843.291 0 .955-.067.955-.607 0-.933-3.542-.191-3.542-2.316 0-1.505 1.316-2.09 2.53-2.09.921 0 1.831.326 2.64.865l-1.079 1.057zM99.761 16.318h-1.045v2.934c0 .472.237.595.552.595.19 0 .437-.022.527-.033v1.383c-.224.022-.741.066-1.124.066-1.495 0-1.708-.933-1.708-1.798v-3.147h-.853v-1.08h.853v-1.73h1.753v1.73h1.045v1.08zM100.762 21.107h1.753v-5.98h-1.753v5.98zm0-6.655h1.753v-1.35h-1.753v1.35zM107.047 16.318H106v2.934c0 .472.237.595.552.595.19 0 .437-.022.527-.033v1.383c-.224.022-.741.066-1.123.066-1.495 0-1.708-.933-1.708-1.798v-3.147h-.854v-1.08h.854v-1.73H106v1.73h1.046v1.08zM113.343 21.107h-1.753v-.53c-.45.53-1.192.686-1.733.686-1.415 0-1.81-.82-1.81-1.72v-4.417h1.754v3.912c0 .528.191.808.854.808.506 0 .934-.28.934-.932v-3.788h1.753v5.98zM117.873 16.318h-1.045v2.934c0 .472.236.595.551.595.19 0 .437-.022.527-.033v1.383c-.224.022-.741.066-1.123.066-1.495 0-1.708-.933-1.708-1.798v-3.147h-.854v-1.08h.854v-1.73h1.753v1.73h1.045v1.08zM122.562 17.396c-.056-.876-.687-1.145-1.192-1.145-.506 0-1.113.359-1.192 1.145h2.384zm-2.361 1.08c.01 1.147.742 1.506 1.303 1.506.653 0 .955-.337 1.461-1.057l1.316.687c-.608 1.123-1.562 1.651-2.9 1.651-1.855 0-2.934-1.28-2.934-2.967 0-2.113 1.112-3.327 2.934-3.327 2.18 0 2.922 1.664 2.933 3.507h-4.113zM129.993 18.116c0 1.023.427 1.799 1.427 1.799s1.427-.775 1.427-1.866c0-.956-.427-1.73-1.427-1.73s-1.427.774-1.427 1.797m4.608 0c0 2.012-1.316 3.147-3.181 3.147-1.866 0-3.181-1.135-3.181-3.147 0-2.012 1.315-3.147 3.18-3.147 1.866 0 3.182 1.135 3.182 3.147M135.974 16.318h-.92v-1.08h.92v-.584c0-.674.214-1.641 1.709-1.641.382 0 .92.056 1.145.135v1.28h-.494c-.304 0-.607.09-.607.428v.382h1.079v1.08h-1.08v4.788h-1.753v-4.788zM78.042 26.19h6.183v1.552h-2.091v6.451h-2v-6.451h-2.092zM88.002 30.484c-.055-.877-.686-1.147-1.191-1.147-.506 0-1.113.36-1.192 1.147h2.383zm-2.36 1.078c.011 1.147.741 1.508 1.303 1.508.653 0 .955-.338 1.461-1.058l1.316.686c-.608 1.124-1.562 1.652-2.9 1.652-1.855 0-2.934-1.28-2.934-2.967 0-2.113 1.112-3.327 2.933-3.327 2.18 0 2.923 1.664 2.934 3.506h-4.114zM94.86 30.226c-.315-.675-.855-.82-1.124-.82-1 0-1.36.774-1.36 1.797 0 1.024.427 1.798 1.36 1.798.54 0 .966-.202 1.248-.877l1.258.642c-.54.955-1.517 1.584-2.664 1.584-1.786 0-3.023-1.135-3.023-3.147 0-1.977 1.315-3.147 2.967-3.147 1.136 0 2.114.417 2.687 1.462l-1.35.708zM97.233 26.19h1.753v2.585h.022c.337-.461 1.09-.72 1.641-.72 1.258 0 1.876.73 1.876 1.933v4.205h-1.753v-3.585c0-.921-.494-1.136-.877-1.136-.403 0-.91.258-.91 1.372v3.35h-1.753V26.19h.001zM104.102 28.213h1.753v.528c.45-.528 1.19-.686 1.731-.686 1.416 0 1.81.82 1.81 1.72v4.418h-1.753v-3.742c0-.585-.18-.979-.855-.979-.707 0-.932.461-.932 1v3.721h-1.753v-5.98h-.001zM112.297 31.203c0 1.024.427 1.798 1.428 1.798.999 0 1.426-.774 1.426-1.865 0-.955-.427-1.73-1.426-1.73-1.001 0-1.428.774-1.428 1.797m4.608 0c0 2.012-1.315 3.147-3.18 3.147-1.867 0-3.181-1.135-3.181-3.147 0-2.012 1.314-3.147 3.18-3.147 1.867 0 3.181 1.135 3.181 3.147M118.054 34.193h1.753v-8.002h-1.753zM122.708 31.203c0 1.024.427 1.798 1.428 1.798 1 0 1.427-.774 1.427-1.865 0-.955-.427-1.73-1.427-1.73s-1.428.774-1.428 1.797m4.609 0c0 2.012-1.316 3.147-3.181 3.147-1.866 0-3.182-1.135-3.182-3.147 0-2.012 1.316-3.147 3.182-3.147 1.865 0 3.18 1.135 3.18 3.147M130.892 29.336c-.55 0-1.102.316-1.102 1.607 0 .72.158 1.597 1.08 1.597 1.123 0 1.157-.979 1.157-1.597 0-1.213-.595-1.607-1.135-1.607zm2.821-1.123v5.99c0 1.9-1.944 1.969-2.866 1.969-1.799 0-2.742-.608-2.754-2.07h1.821c.011.653.382.922 1.012.922.674 0 1.09-.135 1.09-1.012v-.685c-.382.37-1.124.494-1.652.494-1.676 0-2.328-1.349-2.328-2.855 0-1.462.765-2.91 2.35-2.91.653 0 1.214.145 1.708.628v-.471h1.62zM135.007 34.8c.202.012.404.023.595.023.529 0 .81-.102.81-.44 0-.09-.012-.19-.159-.64l-1.753-5.53h1.844l.967 4.563h.022l.977-4.562h1.9l-2.102 6.373c-.302.91-.684 1.585-1.718 1.585h-1.382V34.8h-.001z"/>
        </g>
    </g>
</svg>
