<svg width="162" height="46" viewBox="0 0 162 46" xmlns="http://www.w3.org/2000/svg" xmlns:xlink="http://www.w3.org/1999/xlink">
    <defs>
        <path id="dc9wj6d2ja" d="M0 0h162v45.457H0z"/>
    </defs>
    <g fill="none" fill-rule="evenodd">
        <mask id="36qlbxrqrb" fill="#fff">
            <use xlink:href="#dc9wj6d2ja"/>
        </mask>
        <path d="M105.27.287V4.14h8.071l.219.676c-.676.137-1.838.335-2.87 1.02v15.238h4.646V4.129h5.41V.267l-15.476.02zM67.857 9.52a5.293 5.293 0 0 1-2.005.328h-2.74V4.099h2.73c.686-.02 1.37.099 2.005.338.498.208.922.567 1.212 1.021.287.468.427 1.014.407 1.56.03.537-.12 1.073-.407 1.528-.28.447-.707.795-1.202.973zm.089 4.308 2.414 7.247h5.15l-2.68-7.812h-3.642l-.218-.665c.694-.14 1.875-.349 2.927-1.063a5.505 5.505 0 0 0 2.412-4.516 6.692 6.692 0 0 0-.892-3.514 6.072 6.072 0 0 0-2.582-2.383 9 9 0 0 0-4.04-.824h-8.379v20.777h4.696v-7.247h4.834zm32.082-3.147a9.145 9.145 0 0 0-.605-3.582 4.901 4.901 0 0 0-1.746-2.204 5.105 5.105 0 0 0-5.361 0 4.752 4.752 0 0 0-1.746 2.204 10.521 10.521 0 0 0 0 7.155c.345.895.953 1.67 1.746 2.214a5.148 5.148 0 0 0 5.361 0 4.914 4.914 0 0 0 1.746-2.214c.437-1.13.646-2.35.605-3.573zm4.795 0c0 2.275-.427 4.209-1.3 5.787A8.97 8.97 0 0 1 100 20.09a10.636 10.636 0 0 1-10.007 0 9.142 9.142 0 0 1-3.525-3.631c-.861-1.598-1.288-3.525-1.288-5.789 0-2.271.427-4.198 1.288-5.806a9.059 9.059 0 0 1 3.515-3.614 10.637 10.637 0 0 1 10.007 0 8.952 8.952 0 0 1 3.522 3.624c.864 1.588 1.301 3.525 1.301 5.806h.01zm-27.01 10.394h4.706V.287h-4.706v20.787zm83.343 4.437.229.467h-.308l-.208-.467h.287zm-.656.467v-1.014h.488c.069 0 .127.01.188.04.059.031.1.07.13.12.038.049.048.12.048.178 0 .069-.01.13-.048.178a.391.391 0 0 1-.13.12.44.44 0 0 1-.198.04h-.328v-.198h.277a.14.14 0 0 0 .1-.04c.02-.02.04-.059.04-.1a.15.15 0 0 0-.04-.099.142.142 0 0 0-.1-.04h-.157v.815h-.27zm.396.318a.823.823 0 0 0 .697-.389.784.784 0 0 0 0-.803.878.878 0 0 0-.287-.277.824.824 0 0 0-.806 0 .797.797 0 0 0-.277.277.772.772 0 0 0 0 .803c.069.11.158.208.277.28.12.068.26.11.396.11zm0 .297c-.434 0-.833-.27-1.01-.676a1.154 1.154 0 0 1 0-.854 1.169 1.169 0 0 1 .584-.584c.279-.11.587-.11.854 0 .129.059.249.14.358.239.099.1.178.216.228.345.12.28.12.587 0 .854a1.049 1.049 0 0 1-.587.587 1.037 1.037 0 0 1-.427.09zm-76.76 10.404L86.4 29.38h.864l2.272 7.616h-5.4zm7.832 8.188h5.043L90.033 24.4H83.65l-6.988 20.785h5.042l1.351-4.567h7.563l1.35 4.567zm31.596 0h-4.645V29.38l-.478-.007-4.693 15.81h-4.645l-4.567-15.81-.597.007v15.804h-4.645V24.39h7.902l3.99 13.936h.476l3.992-13.936h7.91v20.795zm31.407-14.691a2.46 2.46 0 0 0-.971-1.827c-.577-.437-1.38-.656-2.394-.656a4.721 4.721 0 0 0-1.728.27 2.333 2.333 0 0 0-1.052.775 1.845 1.845 0 0 0-.366 1.1c-.01.307.059.625.219.905.157.277.386.505.665.673.318.208.654.368 1.012.498.417.137.843.257 1.28.356l1.828.427c.891.188 1.766.477 2.6.844.723.328 1.4.764 1.984 1.29a5.105 5.105 0 0 1 1.26 1.756c.308.727.458 1.51.448 2.295a5.684 5.684 0 0 1-.974 3.334 6.268 6.268 0 0 1-2.797 2.165c-1.4.536-2.89.793-4.389.755a11.626 11.626 0 0 1-4.457-.775 6.474 6.474 0 0 1-2.958-2.333c-.694-1.042-1.063-2.333-1.1-3.89h4.525a2.96 2.96 0 0 0 1.947 2.739 5.46 5.46 0 0 0 1.995.348 5.22 5.22 0 0 0 1.834-.3 2.777 2.777 0 0 0 1.192-.833c.28-.346.437-.783.437-1.23 0-.407-.14-.796-.396-1.103a2.935 2.935 0 0 0-1.141-.773 11.374 11.374 0 0 0-1.899-.587l-2.223-.546c-1.766-.417-3.166-1.08-4.198-1.995-1.022-.912-1.527-2.145-1.52-3.702a5.45 5.45 0 0 1 1.024-3.345 6.835 6.835 0 0 1 2.85-2.233 10.17 10.17 0 0 1 4.129-.806 9.908 9.908 0 0 1 4.109.806 6.515 6.515 0 0 1 2.729 2.244 5.966 5.966 0 0 1 .994 3.344l-4.498.01zm-28.052 14.69V24.39h14.235v3.85h-9.54v4.617h7.713v3.85h-7.712v4.628h9.56v3.85h-14.256zm-59.25-11.247v3.477h4.287c0 .704-.178 1.397-.526 2.015a3.59 3.59 0 0 1-1.548 1.408 5.503 5.503 0 0 1-2.452.498 4.748 4.748 0 0 1-2.75-.776 4.888 4.888 0 0 1-1.776-2.243 9.069 9.069 0 0 1-.625-3.563 8.91 8.91 0 0 1 .635-3.525 4.99 4.99 0 0 1 1.797-2.203 4.658 4.658 0 0 1 2.699-.765 5.3 5.3 0 0 1 1.479.188c.426.13.836.318 1.191.577.348.25.646.557.885.912.238.38.427.786.546 1.223h4.765a7.507 7.507 0 0 0-.963-2.831 7.758 7.758 0 0 0-1.937-2.231 9.053 9.053 0 0 0-2.729-1.462 10.533 10.533 0 0 0-3.326-.515c-1.32-.01-2.63.239-3.86.714a9.068 9.068 0 0 0-3.129 2.107 9.566 9.566 0 0 0-2.094 3.364 12.519 12.519 0 0 0-.754 4.526c0 2.193.416 4.079 1.25 5.669a8.889 8.889 0 0 0 3.494 3.662 10.994 10.994 0 0 0 9.877.229 7.764 7.764 0 0 0 3.218-3.03c.782-1.318 1.171-2.897 1.171-4.744V33.93l-8.825.007zM27.854 39.23l.447 2.542 20.23 3.374V36.69L27.864 39.23h-.01zM27.218.09 0 12.695l6.78 25.809 5.16-.636-1.417-16.228 1.697-.754 2.928 16.586 8.815-1.083-1.57-17.907 1.68-.745 3.214 18.246 8.925-1.1-1.718-19.626 1.697-.755 3.525 19.954 8.815-1.083V5.43L27.218.09z" fill="#FEFEFE" mask="url(#36qlbxrqrb)"/>
    </g>
</svg>
