<svg width="162" height="34" viewBox="0 0 162 34" xmlns="http://www.w3.org/2000/svg">
    <path d="M42.788 33.825c-5.777 0-6.236-4.4-6.236-5.696 0-1.538.35-4.4 4.103-5.777 3.753-1.376 4.562-1.538 7.235-2.375v-.648c0-1.296 0-1.539-.297-2.376-.459-1.485-1.917-2.483-3.941-2.483-1.917 0-3.564 1.08-4.32 2.672l-1.08-.648c.649-2.375 3.105-4.751 7.316-4.751 2.916 0 4.94.837 6.128 2.673.891 1.484 1 3.482 1 5.507 0 1.835-.109 3.86-.109 5.507 0 1.08-.108 2.132-.108 2.726 0 1.485.297 2.673 1.485 2.673.54 0 .648-.19 1.08-.46l.648.838c-1.08 1.485-2.376 2.672-4.509 2.672-1.646 0-2.834-.837-3.32-2.186-.675.945-2.43 2.132-5.075 2.132zm5.102-11.203c-2.835.837-3.86 1.296-4.67 1.728-1.296.648-1.836 1.836-1.836 3.374 0 1.188.459 3.105 3.213 3.105.89 0 2.186-.19 3.374-.999v-7.235h-.081v.027zM.189 32.692c0-2.133 0-3.942-.189-6.128h1.296c0 1.376.35 2.375.999 3.023.89.999 3.023 1.647 4.94 1.647 4.022 0 5.939-1.539 5.939-4.86 0-2.834-1.728-4.022-4.104-5.695l-.35-.297-2.565-1.728c-3.563-2.376-5.4-4.211-5.4-7.964 0-1.835.73-7.882 9.611-7.882 2.295 0 5.21.296 6.965.54 0 .296-.108 1.646-.108 2.834 0 1.377 0 1.728.108 3.374h-1.08c0-1.484-.459-2.375-1.08-3.023-.836-.837-2.726-1.296-4.75-1.296-4.752 0-5.292 2.376-5.292 4.211 0 2.484 1.296 3.375 4.103 5.21l3.213 2.133c2.726 1.836 5.291 3.564 5.291 8.153 0 7.694-7.235 8.503-10.258 8.503-2.78.378-5.102-.027-7.289-.755zm57.5-19.572c1.08.108 2.727 0 4.32-.297 1.376-.297 1.835-.46 2.834-.891l.46.297v1.647c1.079-.837 3.212-2.025 6.235-2.025 3.86 0 6.344 1.836 7.046 5.048.189.837.297 2.727.297 3.86v6.237c0 3.482.189 4.508.837 5.129.35.297 1.08.648 2.132.648v.998c-1.376-.108-3.86-.189-5.29-.189-1.917 0-4.104.108-5.292.19v-1c1.08-.107 1.728-.458 2.133-.728.648-.648.729-1.836.837-4.509 0-.836.108-2.483.108-3.671 0-1.539 0-3.212-.19-4.86-.296-2.726-1.727-4.021-4.508-4.021-1.916 0-3.104.458-4.022.89V27.05c0 3.483.189 4.509.837 5.13.35.297 1.188.648 2.025.648v.998c-1.728-.108-3.86-.189-5.21-.189-2.835 0-3.753.108-5.4.19v-1.053c.891 0 1.836-.351 2.295-.891.648-.73.729-2.565.729-6.128V19.41c0-2.673-.108-3.753-.46-4.32-.296-.458-.998-.836-2.483-.836v-1.188h-.189v.054h-.08zm26.483 19.518c.89 0 1.836-.297 2.295-.891.647-.73.728-2.565.728-6.128V14.956H84.47v-1.188c1.188-.46 2.187-1 2.726-1.485 0-1.917.108-4.32.351-5.696C88.383 2.187 91.218 0 96.05 0c2.133 0 4.103.729 5.4 1.728l.107.459-2.133 2.915h-.54c-.728-1.728-1.835-2.726-3.752-2.726-.648 0-1.539.189-2.132.728-.891.891-1.08 2.295-1.08 5.049v4.103h4.75v2.673h-4.75v11.824c0 2.834.108 4.21.459 4.75.54.892 2.483 1 3.374 1v1.08a96.801 96.801 0 0 0-5.777-.19c-2.673 0-4.4.108-5.777.19l-.027-.945zm24.539 1.35c-6.479 0-10.34-4.023-10.34-10.799 0-5.291 2.835-11.446 10.799-11.446 6.479 0 10.34 4.022 10.34 10.798 0 5.291-2.862 11.446-10.8 11.446zm.27-19.788c-1.296 0-2.295.35-3.024.998-1.727 1.485-2.564 4.023-2.564 7.775 0 1.485.297 8.612 5.507 8.612 1.296 0 2.294-.351 3.023-1 1.728-1.484 2.565-4.021 2.565-7.774-.027-1.458-.27-8.611-5.507-8.611zm12.715-1.188c1.484.108 3.023-.108 4.67-.351 1.296-.19 2.133-.459 2.565-.729l.35.189v1.836a6.946 6.946 0 0 1 4.94-2.025c1.647 0 2.727.459 3.753 1.296v.648l-1.836 3.32h-.89c-.54-.999-1.647-1.917-3.564-1.917-.89 0-1.647.19-2.295.648v10.907c0 2.834.108 4.103.46 4.67.54.89 2.375.999 3.374.89v1.188c-1.485-.108-4.023-.189-5.777-.189-2.025 0-4.104 0-5.777.19v-1.08c1.188-.108 1.835-.351 2.294-.891.648-.73.73-2.484.73-6.128v-5.94c0-2.672 0-3.752-.46-4.319-.35-.458-1.08-.728-2.483-.728V13.12l-.054-.108zM151.66 1.296c1.296 0 2.915-.297 5.048-.648 1.188-.19 1.917-.459 2.294-.54l.351.189c-.189 1.728-.189 5.696-.189 8.504v17.385c0 2.564 0 4.21.351 4.75.351.46 1.08.838 2.484.838v1.08c-1.377 0-2.916.188-4.562.458-1.08.19-1.917.351-2.376.54l-.54-.189v-1.835a9.664 9.664 0 0 1-5.939 2.024c-5.858 0-9.61-4.022-9.61-10.339 0-2.133.35-4.022 1.08-5.777 1.835-3.86 5.507-6.047 10.15-6.047a23.8 23.8 0 0 1 4.103.351V7.532c0-2.673 0-4.023-.459-4.67-.297-.46-.729-.648-2.294-.73V1.27h.108v.027zm-.756 29.56c1.485 0 2.483-.19 3.482-.837V15.765c-.35-.35-1.646-1.484-4.211-1.484-4.103 0-6.128 2.834-6.128 8.72-.081 2.456.648 7.855 6.857 7.855zm-116.459.648c-.648.837-2.294 2.483-5.777 2.483-3.32 0-5.129-1.187-5.939-3.86-.35-.999-.35-3.105-.35-4.32 0-3.374 0-6.127.107-9.34v-1.484h-2.861v-.837c1.08-.46 1.916-.891 2.672-1.485 1.647-1.296 2.727-2.835 3.942-5.13h.89v4.752h7.235v2.673H27.13v11.176c0 3.374.648 5.21 3.753 5.21 1.485 0 2.483-.46 3.023-.837l.54.999z" fill="#FFF" fill-rule="nonzero"/>
</svg>
