<svg width="18" height="18" viewBox="0 0 18 18" xmlns="http://www.w3.org/2000/svg">
    <g fill-rule="nonzero" fill="none">
        <path d="M18 9A9 9 0 1 1 0 9a9 9 0 0 1 18 0z" fill="#E83324"/>
        <path d="M12.465 5.632A8.246 8.246 0 0 0 10.43 5a.03.03 0 0 0-.033.015c-.088.156-.185.36-.253.52a7.613 7.613 0 0 0-2.286 0 5.268 5.268 0 0 0-.258-.52.032.032 0 0 0-.032-.015 8.223 8.223 0 0 0-2.036.63.03.03 0 0 0-.013.012C4.222 7.58 3.867 9.47 4.04 11.335c.001.01.006.018.013.024a8.293 8.293 0 0 0 2.497 1.262c.013.004.027-.001.035-.012.193-.262.364-.54.511-.83a.032.032 0 0 0-.017-.045 5.46 5.46 0 0 1-.78-.371.032.032 0 0 1-.003-.054c.052-.039.105-.08.155-.121a.03.03 0 0 1 .032-.004c1.637.747 3.408.747 5.026 0a.03.03 0 0 1 .032.004c.05.04.103.082.156.121a.032.032 0 0 1-.003.054c-.25.145-.508.268-.78.371a.032.032 0 0 0-.018.044c.15.291.322.568.51.83a.032.032 0 0 0 .036.013 8.265 8.265 0 0 0 2.5-1.262.032.032 0 0 0 .014-.023c.208-2.157-.35-4.031-1.479-5.692a.025.025 0 0 0-.013-.012zm-5.123 4.567c-.493 0-.899-.452-.899-1.008 0-.555.398-1.008.899-1.008.504 0 .906.457.898 1.008 0 .556-.398 1.008-.898 1.008zm3.322 0c-.492 0-.898-.452-.898-1.008 0-.555.398-1.008.898-1.008.505 0 .907.457.9 1.008 0 .556-.395 1.008-.9 1.008z" fill="#FFF"/>
    </g>
</svg>
