<svg width="18" height="18" viewBox="0 0 18 18" xmlns="http://www.w3.org/2000/svg">
    <g fill="none" fill-rule="evenodd">
        <path d="M18 9A9 9 0 1 1 0 9a9 9 0 0 1 18 0" fill="#E83324"/>
        <path d="M6.667 3.75A2.92 2.92 0 0 0 3.75 6.667v4.666a2.92 2.92 0 0 0 2.917 2.917h4.666a2.92 2.92 0 0 0 2.917-2.917V6.667a2.92 2.92 0 0 0-2.917-2.917H6.667zm0 1.167h4.666c.965 0 1.75.785 1.75 1.75v4.666c0 .965-.785 1.75-1.75 1.75H6.667c-.965 0-1.75-.785-1.75-1.75V6.667c0-.965.785-1.75 1.75-1.75zm5.25.583a.583.583 0 1 0 0 1.167.583.583 0 0 0 0-1.167zM9 6.083A2.92 2.92 0 0 0 6.083 9 2.92 2.92 0 0 0 9 11.917 2.92 2.92 0 0 0 11.917 9 2.92 2.92 0 0 0 9 6.083zM9 7.25c.965 0 1.75.785 1.75 1.75S9.965 10.75 9 10.75 7.25 9.965 7.25 9 8.035 7.25 9 7.25z" fill="#FFF" fill-rule="nonzero"/>
    </g>
</svg>
