<svg width="18" height="18" viewBox="0 0 18 18" xmlns="http://www.w3.org/2000/svg">
    <g fill-rule="nonzero" fill="none">
        <path d="M18 9A9 9 0 1 1 0 9a9 9 0 0 1 18 0z" fill="#E83324"/>
        <path d="m4.44 9.302.04-.06 2.34-3.663a.08.08 0 0 1 .14.01c.392.877.73 1.967.571 2.645-.067.28-.252.658-.46 1.007-.027.051-.056.101-.088.15a.08.08 0 0 1-.067.034H4.51a.08.08 0 0 1-.069-.123z" fill="#FFF"/>
        <path d="M14.876 9.983v.58c0 .033-.02.063-.05.076-.181.077-.802.362-1.06.72-.658.917-1.161 2.227-2.285 2.227H6.79a3.015 3.015 0 0 1-3.01-3.02v-.053a.08.08 0 0 1 .08-.08h2.615c.052 0 .09.047.085.098a.893.893 0 0 0 .094.502.92.92 0 0 0 .825.513h1.294v-1.011h-1.28a.082.082 0 0 1-.066-.13l.046-.068c.121-.172.294-.44.466-.743.118-.206.231-.425.323-.645.018-.04.033-.08.048-.12.025-.07.05-.136.07-.202.018-.055.033-.113.047-.168.044-.187.062-.385.062-.59 0-.08-.003-.164-.01-.245a3.175 3.175 0 0 0-.027-.263 2.73 2.73 0 0 0-.036-.235 3.959 3.959 0 0 0-.074-.352l-.01-.044c-.022-.08-.04-.157-.066-.238a8.965 8.965 0 0 0-.246-.728c-.033-.092-.07-.18-.107-.268-.054-.132-.11-.252-.16-.366a5.026 5.026 0 0 1-.07-.147 5.248 5.248 0 0 0-.078-.16c-.018-.04-.04-.077-.054-.114l-.158-.293a.052.052 0 0 1 .058-.074l.99.268h.006l.13.037.143.04.053.015v-.588c0-.284.228-.514.509-.514.14 0 .268.057.36.15a.517.517 0 0 1 .148.364v.873l.106.03a.084.084 0 0 1 .024.012l.11.083c.037.03.077.065.125.102a7.578 7.578 0 0 1 .429.378 7.623 7.623 0 0 1 .656.688c.048.059.1.117.144.175.058.078.12.158.175.243.026.04.056.08.08.12a2.564 2.564 0 0 1 .264.487 2.352 2.352 0 0 1 .173.546v.007a.85.85 0 0 1 .019.14 1.493 1.493 0 0 1-.08.654c-.023.063-.045.129-.074.19a2.582 2.582 0 0 1-.199.378 2.16 2.16 0 0 1-.084.136l-.095.135a2.82 2.82 0 0 1-.129.166c-.04.054-.08.109-.124.157a6.023 6.023 0 0 1-.184.209 1.913 1.913 0 0 1-.117.127c-.04.045-.08.084-.117.121-.062.062-.114.11-.158.15l-.101.094a.083.083 0 0 1-.055.02H9.79v1.01h.992a.927.927 0 0 0 .602-.222c.059-.051.313-.271.614-.603a.077.077 0 0 1 .037-.023l2.738-.792a.08.08 0 0 1 .103.078z" fill="#FFF"/>
    </g>
</svg>
