<svg width="190" height="46" viewBox="0 0 190 46" xmlns="http://www.w3.org/2000/svg" xmlns:xlink="http://www.w3.org/1999/xlink">
    <defs>
        <path id="tvw7uvocca" d="M0 0h45.82v45.816H0z"/>
    </defs>
    <g fill="none" fill-rule="evenodd">
        <g>
            <mask id="uttif65uab" fill="#fff">
                <use xlink:href="#tvw7uvocca"/>
            </mask>
            <path d="M6.69 6.689c-8.92 8.918-8.92 23.432 0 32.438 9.006 8.919 23.521 8.919 32.44 0 8.92-8.919 8.92-23.432 0-32.438-8.919-8.919-23.434-8.919-32.44 0" fill="#E5E3E1" mask="url(#uttif65uab)"/>
        </g>
        <path d="m98.67 12.018-1.05-5.25H82.31c-.874 7.699-1.662 15.396-2.536 23.094H97.62c.087-1.487.175-2.886.262-4.374-.962.263-1.837.438-2.799.7a5.054 5.054 0 0 0-1.837.788h-6.124c.263-2.45.438-4.987.7-7.436h5.424c.087-.875.174-1.837.262-2.712h-5.336c.262-2.361.437-4.635.612-6.997 3.237.7 6.561 1.399 9.886 2.187M69.538 17.878c-1.662.613-3.324 1.224-5.074 1.75.526-3.237 1.05-6.474 1.488-9.71 1.487.35 2.974.7 4.548 1.05-.35 2.274-.612 4.636-.962 6.91m5.687 4.199h-3.237c-.263-.7-.525-1.312-.875-2.012 1.837-.612 3.674-1.312 5.424-1.925.437-3.849.875-7.697 1.4-11.546H59.565L55.63 29.687h7.26c.35-2.361.7-4.81 1.05-7.173a49.895 49.895 0 0 1 3.325-1.137c.875 2.8 1.75 5.51 2.624 8.31h7.96l-2.623-7.61M112.885 26.975h-4.9c.263-5.598.438-11.109.7-16.707 1.575.35 3.063.7 4.637 1.05-.088 3.761-.35 11.809-.437 15.657zm2.099-20.38h-13.035l-1.312 23.092h19.508c0-3.849.088-13.559.175-17.233a372.165 372.165 0 0 1-2.887-5.86h-2.45zM156.408 20.94c-.175-1.837-.788-8.835-.963-10.76 1.313.263 2.712.525 4.024.875.875 3.325 1.75 6.56 2.625 9.885h-5.686zm8.748-14.346h-13.91c-.875 1.924-1.662 3.849-2.537 5.86.263 3.675.875 13.471 1.225 17.233h7.26l-.524-6.036h6.211c.525 2.012 1.137 4.024 1.662 6.036h7.261c-2.274-7.698-4.461-15.395-6.648-23.093zM181.252 12.018c2.012.437 4.024.874 6.037 1.224-.35-2.274-.788-4.461-1.138-6.735-2.012.087-3.849.087-5.774.087H167.78c.087.875.262 1.837.35 2.712 2.011.438 3.936.875 5.949 1.225.875 6.385 1.75 12.683 2.624 19.069h7.261c-.875-5.861-1.837-11.722-2.712-17.582M139.786 21.115l.262 5.773h-4.899l-.525-16.97 4.725 1.05c.087 1.4.087 2.799.175 4.198h6.998c-.088-.874-.088-1.749-.175-2.711-1.138-1.925-2.187-3.849-3.324-5.86h-15.397l.262 23.092h16.36c.961-1.925 1.836-3.849 2.799-5.86-.088-.875-.088-1.75-.175-2.712h-7.086zM60.353 39.746c-.613-1.574-1.225-3.236-1.838-4.81h-3.499c-.437 2.449-.875 4.898-1.225 7.26h2.188c.35-1.837.612-3.762.962-5.598.7 1.836 1.4 3.76 2.187 5.598h1.75c1.4-1.837 2.711-3.762 4.111-5.598-.35 1.836-.612 3.76-.962 5.598h2.187c.35-2.362.7-4.811 1.05-7.26h-3.5c-1.137 1.574-2.274 3.236-3.411 4.81M79.774 38.26c-.087.787-.087.787-.087.962 0 .612-.175.874-.438 1.05-.35.174-.787.262-2.45.262-1.662 0-2.012-.175-2.012-.962 0-.263 0-.263.088-1.05.087-.175.087-.262.087-.437.175-1.05.35-2.1.438-3.15h-2.275l-.524 3.937c-.35 2.186-.088 2.8 1.224 3.236.525.175.875.175 2.974.175h1.838c.962-.087 1.662-.175 2.187-.612.7-.525.875-1.05 1.05-2.887.175-1.312.262-2.536.437-3.848h-2.187c-.088 1.137-.262 2.186-.35 3.324M90.621 34.935h-2.187c-.262 2.45-.437 4.899-.612 7.348h7.348c0-.612 0-1.224.088-1.837h-5.074c.087-1.837.262-3.674.437-5.51M99.02 36.772h3.237c-.088 1.837-.175 3.674-.35 5.511h2.274l.262-5.51h3.237c0-.613.088-1.225.088-1.838h-8.661c0 .613 0 1.225-.087 1.837M113.191 42.196h2.275c0-2.362 0-4.811.087-7.26h-2.187c-.087 2.449-.175 4.898-.175 7.26M126.314 40.446l-2.887-5.51h-2.45a547.287 547.287 0 0 0 3.937 7.26h2.8a190.117 190.117 0 0 0 3.849-7.26h-2.45c-.874 1.836-1.837 3.673-2.799 5.51M139.523 40.534c0-.437-.087-.875-.087-1.312h5.599c0-.438-.088-.962-.088-1.4h-5.511c0-.35-.088-.787-.088-1.224h5.862c0-.613-.088-1.138-.088-1.663h-7.96c.087 2.362.175 4.811.262 7.26h8.223c0-.611-.088-1.136-.088-1.661h-6.036zM157.02 38.61h-3.412c-.088-.613-.088-1.225-.175-1.838h3.5c.7 0 .874 0 1.05.175.174.088.174.35.262.788 0 .787-.175.874-1.225.874m2.187.788c.962-.263 1.224-.7 1.05-2.1-.088-.962-.35-1.574-.788-1.925-.437-.349-.962-.437-2.274-.437h-6.211c.262 2.45.437 4.899.524 7.26h2.188c-.088-.612-.088-1.224-.176-1.836h3.413c.962 0 1.224.175 1.312.962 0 .262.087.613.087.875h2.274c0-.35 0-.787-.087-1.137-.088-1.138-.437-1.487-1.312-1.662M173.291 37.822c-.35-.087-1.4-.087-1.575-.087h-2.011c-.7 0-.788-.088-.875-.088-.262 0-.437-.262-.525-.525-.087-.437.175-.525.7-.612.35-.088 1.312-.088 2.012-.088 1.4 0 1.662.088 1.75.7h2.186c-.175-1.05-.437-1.487-.962-1.837-.525-.35-1.137-.437-3.674-.437-1.574 0-2.362 0-2.974.175-.963.262-1.312.787-1.137 2.1.087.961.437 1.574.962 1.836.525.262 1.137.35 2.449.35h2.012c1.137 0 1.137 0 1.4.088.175.087.35.35.437.612.087.612-.175.7-2.8.7-.699 0-1.311 0-1.486-.088-.263-.087-.35-.175-.437-.7-.788 0-1.488 0-2.275.088v.35c.087.875.438 1.4.875 1.662.7.262 1.312.35 3.85.35 1.661 0 2.711-.088 3.236-.175 1.05-.262 1.312-.875 1.137-2.187-.262-1.487-.875-2.1-2.275-2.187M183.701 40.534l-.262-1.312h5.599c-.088-.438-.175-.962-.263-1.4h-5.51c0-.35-.088-.787-.176-1.224h5.861c-.087-.613-.175-1.138-.262-1.663h-8.048c.35 2.362.7 4.811 1.137 7.26H190c-.087-.611-.175-1.136-.262-1.661H183.7zM36.514 16.479c-.437-.35-5.95-3.936-5.95-3.936V8.43c-8.921 1.458-19.771 6.455-27.53 13.412a20.28 20.28 0 0 0-.026 1.021c0 11.022 8.923 19.944 19.946 19.944 2.372 0 4.645-.415 6.755-1.173-1.009-.215-7.193.485-7.193-5.125 0-9.185 12.685-7.96 12.685-7.96s3.237-4.986 3.237-5.424c-.087-.699-1.574-2.012-1.924-2.449-.35-.35.437-3.848 0-4.198" fill="#F32424"/>
        <path d="M35.464 10.355a.597.597 0 0 0-.612.612c0 .351.35.613.612.613.35 0 .612-.262.612-.613a.598.598 0 0 0-.612-.612M33.452 34.754h-1.05c-.175 0-.35-.087-.525-.262-.175-.175-.263-.35-.263-.525l-.087-1.312c0-.088-.087-.263-.262-.263-.088 0-.263.088-.263.263v1.312c0 .175-.087.35-.262.525-.175.175-.35.262-.525.262h-3.412c-.088 0-.263.087-.263.262 0 .088.088.263.263.263h3.5c.174 0 .35.087.524.263.175.174.263.349.263.524v1.75c0 .087.087.263.262.263.175 0 .262-.088.262-.263v-1.75c0-.175.088-.35.263-.524.175-.176.35-.263.525-.263h1.05c.087 0 .262-.088.262-.263 0-.087-.087-.262-.262-.262M21.642 7.063h-3.937c-.175 0-.35-.088-.525-.175-.175-.088-.175-.35-.175-.525V4.7c0-.088-.088-.263-.263-.263-.087 0-.262.088-.262.263v1.662c0 .175-.088.35-.175.525-.088.175-.35.175-.525.175h-1.312c-.088 0-.263.087-.263.262 0 .088.088.263.263.263h1.312c.175 0 .35.087.525.175.087.087.175.349.175.524v1.662c0 .088.087.263.262.263.088 0 .263-.088.263-.263V8.287c0-.175.088-.35.175-.524.087-.088.35-.175.525-.175h3.937c.087 0 .262-.088.262-.263 0-.087-.087-.262-.262-.262M39.138 28.55a.785.785 0 0 0-.788.787c0 .438.35.787.788.787.437 0 .788-.35.788-.787a.785.785 0 0 0-.788-.787M8.432 12.018a.784.784 0 0 0-.787.787c0 .437.35.787.787.787.437 0 .788-.35.788-.787a.785.785 0 0 0-.788-.787" fill="#7572FB"/>
        <path d="m29.515 19.628 3.587 1.575s-.35-3.062-.525-3.062c-.175-.088-2.1.962-3.062 1.487" fill="#E5E3E1"/>
    </g>
</svg>
