<svg width="18" height="18" viewBox="0 0 18 18" xmlns="http://www.w3.org/2000/svg">
    <g fill="none" fill-rule="evenodd">
        <path d="M9 0a9 9 0 1 1 0 18A9 9 0 0 1 9 0" fill="#E83324"/>
        <path d="M11.054 10.979a.893.893 0 0 0 .656-.277.913.913 0 0 0 .254-.672c0-.37-.22-.702-.556-.843a.893.893 0 0 0-.982.198.92.92 0 0 0-.195.994c.14.34.468.563.832.563l-.009.037zm.165 1.554a.248.248 0 0 0 .005-.349.242.242 0 0 0-.171-.074.292.292 0 0 0-.18.064 2.944 2.944 0 0 1-1.882.556 2.906 2.906 0 0 1-1.874-.574.241.241 0 0 0-.326.016.248.248 0 0 0-.016.33 3.456 3.456 0 0 0 1.632.676c.197.026.395.035.593.027a3.437 3.437 0 0 0 2.225-.703l-.006.03zm-5.16-2.19a.914.914 0 0 0 .488.493.901.901 0 0 0 1.177-.494.92.92 0 0 0-.195-.994.893.893 0 0 0-.982-.198.913.913 0 0 0-.487 1.192zM15 9.08a1.352 1.352 0 0 1-.191.713 1.33 1.33 0 0 1-.538.5 2.466 2.466 0 0 1 0 .402c0 2.043-2.351 3.704-5.252 3.704-2.9 0-5.252-1.66-5.252-3.704a2.467 2.467 0 0 1 0-.402 1.328 1.328 0 0 1-.717-.85c-.104-.376-.04-.78.176-1.104a1.305 1.305 0 0 1 1.992-.226 6.44 6.44 0 0 1 1.675-.822 6.374 6.374 0 0 1 1.838-.3l.667-3.166a.283.283 0 0 1 .223-.222.277.277 0 0 1 .11.003l2.207.447a.895.895 0 0 1 1.103-.392.915.915 0 0 1 .557 1.04.903.903 0 0 1-.928.722.906.906 0 0 1-.85-.814L9.893 4.2l-.586 2.846a6.325 6.325 0 0 1 2.67.654c.278.137.544.293.799.468a1.308 1.308 0 0 1 1.404-.273c.235.096.438.26.583.47.146.21.229.459.238.716z" fill="#FFF"/>
    </g>
</svg>
