<svg width="18" height="18" viewBox="0 0 18 18" xmlns="http://www.w3.org/2000/svg">
    <g fill="none" fill-rule="evenodd">
        <path d="M18 9A9 9 0 1 1 0 9a9 9 0 0 1 18 0" fill="#E83324"/>
        <path d="M7.353 13.747c3.991 0 6.173-3.306 6.173-6.173a6.11 6.11 0 0 0-.006-.28 4.415 4.415 0 0 0 1.082-1.124c-.388.173-.807.29-1.245.342.447-.269.791-.694.954-1.2-.42.248-.884.429-1.378.526a2.17 2.17 0 0 0-3.697 1.979A6.16 6.16 0 0 1 4.764 5.55a2.168 2.168 0 0 0 .672 2.896 2.154 2.154 0 0 1-.983-.27l-.001.027a2.17 2.17 0 0 0 1.74 2.127 2.177 2.177 0 0 1-.98.037 2.172 2.172 0 0 0 2.028 1.507 4.354 4.354 0 0 1-3.213.899c.96.615 2.1.974 3.326.974" fill="#FFF"/>
    </g>
</svg>
