<?xml version="1.0" encoding="utf-8"?>
<!-- Generator: Adobe Illustrator 26.3.1, SVG Export Plug-In . SVG Version: 6.00 Build 0)  -->
<svg version="1.1" id="Layer_1" xmlns="http://www.w3.org/2000/svg" xmlns:xlink="http://www.w3.org/1999/xlink" x="0px" y="0px"
	 viewBox="0 0 285.78 285.22" style="enable-background:new 0 0 285.78 285.22;" xml:space="preserve">
<style type="text/css">
	.st0{fill:#FFFFFF;}
	.st1{fill:#C2B59B;}
	.st2{fill:#231F20;}
	.st3{font-family:'A750SansBold';}
	.st4{font-size:9px;}
	.st5{fill:none;stroke:#E6E7E8;stroke-width:0.75;stroke-miterlimit:10;}
	.st6{fill:#C49A6C;}
	.st7{font-size:15.26px;}
	.st8{font-size:14px;}
	.st9{fill:none;stroke:#C2B59B;stroke-width:4;stroke-miterlimit:10;}
	.st10{opacity:0.68;fill:#39B54A;enable-background:new    ;}
	.st11{opacity:0.44;fill:#231F20;enable-background:new    ;}
</style>
<g id="Layer_1_00000032627003742974316180000016236141533552691593_">
	<g>
		<circle class="st0" cx="142.94" cy="142.4" r="97.42"/>
		<path class="st1" d="M142.94,55.52c47.98,0,86.88,38.9,86.88,86.88s-38.9,86.88-86.88,86.88s-86.88-38.9-86.88-86.88
			S94.96,55.52,142.94,55.52 M142.94,34.44c-28.84,0-55.95,11.23-76.34,31.62s-31.62,47.5-31.62,76.34s11.23,55.95,31.62,76.34
			s47.5,31.62,76.34,31.62s55.95-11.23,76.34-31.62s31.62-47.5,31.62-76.34s-11.23-55.95-31.62-76.34S171.78,34.44,142.94,34.44
			C142.94,34.44,142.94,34.44,142.94,34.44z"/>
	</g>
	<text transform="matrix(0.9989 -0.0461 0.0461 0.9989 136.25 49.71)" class="st2 st3 st4">1</text>
	<text transform="matrix(1 9.424639e-03 -9.424639e-03 1 141.37 49.48)" class="st2 st3 st4">0</text>
	<text transform="matrix(0.9979 0.0651 -0.0651 0.9979 146.5 49.54)" class="st2 st3 st4">0</text>
	<text transform="matrix(0.3854 0.9227 -0.9227 0.3854 227.69 104.29)" class="st2 st3 st4">1</text>
	<text transform="matrix(0.3302 0.9439 -0.9439 0.3302 229.6797 109.0601)" class="st2 st3 st4">0</text>
	<text transform="matrix(0.2827 0.9592 -0.9592 0.2827 231.3803 113.8801)" class="st2 st3 st4">0</text>
	<text transform="matrix(-0.7517 0.6595 -0.6595 -0.7517 206.0507 210.6303)" class="st2 st3 st4">1</text>
	<text transform="matrix(-0.7873 0.6166 -0.6166 -0.7873 202.1808 214.0199)" class="st2 st3 st4">0</text>
	<text transform="matrix(-0.8204 0.5719 -0.5719 -0.8204 198.1307 217.1801)" class="st2 st3 st4">0</text>
	<text transform="matrix(-0.8645 -0.5027 0.5027 -0.8645 98.3301 223.8995)" class="st2 st3 st4">1</text>
	<text transform="matrix(-0.8356 -0.5493 0.5493 -0.8356 93.9101 221.3208)" class="st2 st3 st4">0</text>
	<text transform="matrix(-0.8041 -0.5945 0.5945 -0.8041 89.6196 218.5003)" class="st2 st3 st4">0</text>
	<text transform="matrix(0.2548 -0.967 0.967 0.2548 52.4801 121.1799)" class="st2 st3 st4">1</text>
	<text transform="matrix(0.3075 -0.9515 0.9515 0.3075 53.8 116.2197)" class="st2 st3 st4">0</text>
	<text transform="matrix(0.3597 -0.9331 0.9331 0.3597 55.3899 111.3097)" class="st2 st3 st4">0</text>
	<polygon class="st5" points="142.94,58.52 63.05,116.56 93.57,210.48 192.31,210.48 222.83,116.56 	"/>
	<polygon class="st5" points="142.94,73.72 79.03,120.15 103.44,195.28 182.44,195.28 206.85,120.15 	"/>
	<polygon class="st5" points="142.94,88.91 95.01,123.74 113.32,180.08 172.56,180.08 190.87,123.74 	"/>
	<polygon class="st5" points="142.94,104.11 110.99,127.32 123.19,164.89 162.69,164.89 174.89,127.32 	"/>
	<polygon class="st5" points="142.94,119.3 126.96,130.91 133.07,149.69 152.81,149.69 158.92,130.91 	"/>
	<g>
		<path class="st6" d="M142.94,37.54c57.91,0,104.86,46.95,104.86,104.86s-46.95,104.86-104.86,104.86S38.08,200.31,38.08,142.4
			S85.03,37.54,142.94,37.54 M142.94,3.2c-37.18,0-72.14,14.48-98.43,40.77C18.21,70.26,3.73,105.22,3.73,142.4
			s14.48,72.14,40.77,98.43s61.25,40.77,98.43,40.77s72.14-14.48,98.43-40.77s40.77-61.25,40.77-98.43s-14.48-72.14-40.77-98.43
			C215.08,17.68,180.12,3.2,142.94,3.2C142.94,3.2,142.94,3.2,142.94,3.2z"/>
		<text transform="matrix(0.9838 -0.1795 0.1795 0.9838 117.8201 30.0101)" class="st2 st3 st7">F</text>
		<text transform="matrix(0.9966 -0.0825 0.0825 0.9966 127.63 28.19)" class="st2 st3 st7">O</text>
		<text transform="matrix(0.9998 0.0195 -0.0195 0.9998 140.04 27.25)" class="st2 st3 st7">C</text>
		<text transform="matrix(0.9932 0.1165 -0.1165 0.9932 150.89 27.48)" class="st2 st3 st7">U</text>
		<text transform="matrix(0.9772 0.2122 -0.2122 0.9772 162.29 28.87)" class="st2 st3 st7">S</text>
		<text transform="matrix(0.6413 0.7673 -0.7673 0.6413 229.6998 66.7899)" class="st2 st3 st7">I</text>
		<text transform="matrix(0.5847 0.8113 -0.8113 0.5847 233.0701 70.6801)" class="st2 st3 st7">N</text>
		<text transform="matrix(0.5101 0.8601 -0.8601 0.5101 239.6803 80.0101)" class="st2 st3 st7">T</text>
		<text transform="matrix(0.4374 0.8993 -0.8993 0.4374 244.2397 87.7001)" class="st2 st3 st7">E</text>
		<text transform="matrix(0.3525 0.9358 -0.9358 0.3525 248.7103 96.8899)" class="st2 st3 st7">N</text>
		<text transform="matrix(0.2688 0.9632 -0.9632 0.2688 252.6496 107.6)" class="st2 st3 st7">T</text>
		<text transform="matrix(0.2101 0.9777 -0.9777 0.2101 254.9404 116.07)" class="st2 st3 st7">I</text>
		<text transform="matrix(0.1352 0.9908 -0.9908 0.1352 256.1396 121.1101)" class="st2 st3 st7">O</text>
		<text transform="matrix(0.0305 0.9995 -0.9995 0.0305 257.7599 133.47)" class="st2 st3 st7">N</text>
		<text transform="matrix(-0.66 0.7513 -0.7513 -0.66 232.8491 214.3599)" class="st2 st3 st7">D</text>
		<text transform="matrix(-0.7312 0.6821 -0.6821 -0.7312 225.2195 222.9696)" class="st2 st3 st7">R</text>
		<text transform="matrix(-0.7776 0.6288 -0.6288 -0.7776 217.1008 230.3798)" class="st2 st3 st7">I</text>
		<text transform="matrix(-0.8183 0.5749 -0.5749 -0.8183 213.1599 233.6598)" class="st2 st3 st7">V</text>
		<text transform="matrix(-0.8667 0.4988 -0.4988 -0.8667 204.5407 239.6697)" class="st2 st3 st7">E</text>
		<text transform="matrix(-0.9863 -0.1647 0.1647 -0.9863 128.9302 256.7009)" class="st2 st3 st8">D</text>
		<text transform="matrix(-0.9685 -0.249 0.249 -0.9685 118.5704 254.9204)" class="st2 st3 st8">E</text>
		<text transform="matrix(-0.9469 -0.3216 0.3216 -0.9469 109.5601 252.5502)" class="st2 st3 st8">T</text>
		<text transform="matrix(-0.9199 -0.3922 0.3922 -0.9199 101.8004 249.9195)" class="st2 st3 st8">E</text>
		<text transform="matrix(-0.8834 -0.4685 0.4685 -0.8834 93.1802 246.2408)" class="st2 st3 st8">R</text>
		<text transform="matrix(-0.8312 -0.556 0.556 -0.8312 84.0203 241.4094)" class="st2 st3 st8">M</text>
		<text transform="matrix(-0.7857 -0.6185 0.6185 -0.7857 73.3203 234.0398)" class="st2 st3 st8">I</text>
		<text transform="matrix(-0.7434 -0.6689 0.6689 -0.7434 69.5601 231.18)" class="st2 st3 st8">N</text>
		<text transform="matrix(-0.6794 -0.7337 0.7337 -0.6794 61.74 224.0807)" class="st2 st3 st8">A</text>
		<text transform="matrix(-0.6235 -0.7818 0.7818 -0.6235 55.3699 217.1492)" class="st2 st3 st8">T</text>
		<text transform="matrix(-0.5793 -0.8151 0.8151 -0.5793 50.3998 210.8399)" class="st2 st3 st8">I</text>
		<text transform="matrix(-0.5213 -0.8534 0.8534 -0.5213 47.5899 207.0393)" class="st2 st3 st8">O</text>
		<text transform="matrix(-0.4377 -0.8991 0.8991 -0.4377 41.6701 197.2493)" class="st2 st3 st8">N</text>
		<text transform="matrix(-0.0525 -0.9986 0.9986 -0.0525 28.27 153.4994)" class="st2 st3 st7">C</text>
		<text transform="matrix(0.044 -0.999 0.999 0.044 27.73 142.6304)" class="st2 st3 st7">R</text>
		<text transform="matrix(0.1368 -0.9906 0.9906 0.1368 28.28 131.4698)" class="st2 st3 st7">E</text>
		<text transform="matrix(0.228 -0.9737 0.9737 0.228 29.69 121.3403)" class="st2 st3 st7">A</text>
		<text transform="matrix(0.3042 -0.9526 0.9526 0.3042 32.05 111.3901)" class="st2 st3 st7">T</text>
		<text transform="matrix(0.3605 -0.9328 0.9328 0.3605 34.7801 103.0703)" class="st2 st3 st7">I</text>
		<text transform="matrix(0.4218 -0.9067 0.9067 0.4218 36.5499 98.2897)" class="st2 st3 st7">V</text>
		<text transform="matrix(0.4814 -0.8765 0.8765 0.4814 41.01 88.9598)" class="st2 st3 st7">I</text>
		<text transform="matrix(0.533 -0.8461 0.8461 0.533 43.41 84.5002)" class="st2 st3 st7">T</text>
		<text transform="matrix(0.6049 -0.7963 0.7963 0.6049 48.19 76.89)" class="st2 st3 st7">Y</text>
	</g>
	<line class="st9" x1="241.97" y1="171.9" x2="276.27" y2="182.37"/>
	<line class="st9" x1="43.73" y1="171.93" x2="9.51" y2="182.09"/>
	<line class="st9" x1="204" y1="59.52" x2="225.49" y2="30.34"/>
	<line class="st9" x1="144.83" y1="245.9" x2="145.94" y2="281.51"/>
	<line class="st9" x1="80.79" y1="59.16" x2="59.07" y2="31.34"/>
	<polygon class="st10" points="142.94,66.33 87.89,122.78 106.11,191.22 174.89,182.11 212.33,119.3 	"/>
	<polygon class="st11" points="142.94,86.78 117.67,129.44 122.11,167.22 163.44,167.22 182.56,125.44 	"/>
</g>
</svg>
