<svg xmlns="http://www.w3.org/2000/svg" viewBox="0 0 285.78 285.22"><defs><style>.cls-1{isolation:isolate;}.cls-2{font-size:15.26px;}.cls-11,.cls-2,.cls-3,.cls-6{fill:#231f20;}.cls-2,.cls-3,.cls-6{font-family:A750SansBold, A750-Sans;}.cls-3{font-size:14px;}.cls-4{fill:#fff;}.cls-5{fill:#c2b59b;}.cls-6{font-size:9px;}.cls-7,.cls-9{fill:none;stroke-miterlimit:10;}.cls-7{stroke:#e6e7e8;stroke-width:0.75px;}.cls-8{fill:#c49a6c;}.cls-9{stroke:#c2b59b;stroke-width:4px;}.cls-10{fill:#39b54a;opacity:0.68;}.cls-10,.cls-11{mix-blend-mode:multiply;}.cls-11{opacity:0.44;}</style></defs><g class="cls-1"><g id="Layer_1" data-name="Layer 1"><text class="cls-2" transform="translate(-187.96 30.01) rotate(-10.34)">F</text><text class="cls-2" transform="translate(-178.15 28.19) rotate(-4.73)">O</text><text class="cls-2" transform="matrix(1, 0.02, -0.02, 1, -165.74, 27.25)">C</text><text class="cls-2" transform="translate(-154.89 27.48) rotate(6.69)">U</text><text class="cls-2" transform="translate(-143.49 28.87) rotate(12.25)">S</text><text class="cls-2" transform="matrix(0.96, 0.28, -0.28, 0.96, -133.11, 31.24)">	</text><text class="cls-2" transform="translate(-95 49.46) rotate(37.09)"> </text><text class="cls-2" transform="matrix(0.77, 0.63, -0.63, 0.77, -91.6, 52.03)"> </text><text class="cls-2" transform="translate(-88.28 54.75) rotate(41.36)"> </text><text class="cls-2" transform="translate(-85.06 57.59) rotate(43.5)"> </text><text class="cls-2" transform="matrix(0.7, 0.72, -0.72, 0.7, -81.97, 60.54)"> </text><text class="cls-2" transform="matrix(0.67, 0.74, -0.74, 0.67, -78.97, 63.61)"> </text><text class="cls-2" transform="translate(-76.08 66.79) rotate(50.11)">I</text><text class="cls-2" transform="translate(-72.71 70.68) rotate(54.22)">N</text><text class="cls-2" transform="matrix(0.51, 0.86, -0.86, 0.51, -66.09, 80.01)">T</text><text class="cls-2" transform="translate(-61.54 87.7) rotate(64.06)">E</text><text class="cls-2" transform="translate(-57.07 96.89) rotate(69.36)">N</text><text class="cls-2" transform="translate(-53.12 107.6) rotate(74.41)">T</text><text class="cls-2" transform="matrix(0.21, 0.98, -0.98, 0.21, -50.83, 116.07)">I</text><text class="cls-2" transform="translate(-49.63 121.11) rotate(82.23)">O</text><text class="cls-2" transform="translate(-48.02 133.47) rotate(88.25)">N</text><text class="cls-2" transform="matrix(-0.04, 1, -1, -0.04, -47.8, 144.72)">	</text><text class="cls-2" transform="translate(-54.32 180.57) rotate(110.38)"> </text><text class="cls-2" transform="translate(-55.81 184.56) rotate(112.49)"> </text><text class="cls-2" transform="translate(-57.45 188.51) rotate(114.61)"> </text><text class="cls-2" transform="translate(-59.23 192.39) rotate(116.72)"> </text><text class="cls-2" transform="translate(-61.17 196.22) rotate(118.85)"> </text><text class="cls-2" transform="translate(-63.25 199.98) rotate(120.99)"> </text><text class="cls-2" transform="translate(-65.46 203.65) rotate(123.11)"> </text><text class="cls-2" transform="translate(-67.79 207.22) rotate(125.24)"> </text><text class="cls-2" transform="matrix(-0.61, 0.79, -0.79, -0.61, -70.27, 210.71)"> </text><text class="cls-2" transform="translate(-72.93 214.36) rotate(131.3)">D</text><text class="cls-2" transform="translate(-80.55 222.97) rotate(136.99)">R</text><text class="cls-2" transform="translate(-88.68 230.38) rotate(141.04)">I</text><text class="cls-2" transform="translate(-92.62 233.66) rotate(144.91)">V</text><text class="cls-2" transform="translate(-101.24 239.67) rotate(150.08)">E</text><text class="cls-2" transform="matrix(-0.9, 0.44, -0.44, -0.9, -109.96, 244.57)">	</text><text class="cls-2" transform="matrix(-0.93, 0.36, -0.36, -0.93, -120.11, 249.21)">	</text><text class="cls-2" transform="translate(-168.07 257.35) rotate(-176.37)"> </text><text class="cls-2" transform="matrix(-0.99, -0.1, 0.1, -0.99, -172.37, 257.07)"> </text><text class="cls-3" transform="translate(-176.85 256.7) rotate(-170.52)">D</text><text class="cls-3" transform="translate(-187.2 254.92) rotate(-165.58)">E</text><text class="cls-3" transform="translate(-196.22 252.55) rotate(-161.24)">T</text><text class="cls-3" transform="translate(-203.98 249.92) rotate(-156.91)">E</text><text class="cls-3" transform="translate(-212.59 246.24) rotate(-152.06)">R</text><text class="cls-3" transform="translate(-221.76 241.41) rotate(-146.22)">M</text><text class="cls-3" transform="matrix(-0.79, -0.62, 0.62, -0.79, -232.46, 234.04)">I</text><text class="cls-3" transform="translate(-236.21 231.18) rotate(-138.02)">N</text><text class="cls-3" transform="translate(-244.04 224.08) rotate(-132.8)">A</text><text class="cls-3" transform="translate(-250.41 217.15) rotate(-128.57)">T</text><text class="cls-3" transform="translate(-255.37 210.84) rotate(-125.4)">I</text><text class="cls-3" transform="translate(-258.19 207.04) rotate(-121.42)">O</text><text class="cls-3" transform="translate(-264.1 197.25) rotate(-115.96)">N</text><text class="cls-2" transform="translate(-268.53 187.91) rotate(-112.33)">	</text><text class="cls-2" transform="translate(-274.43 170.56) rotate(-103.23)"> </text><text class="cls-2" transform="matrix(-0.19, -0.98, 0.98, -0.19, -275.4, 166.41)"> </text><text class="cls-2" transform="translate(-276.22 162.2) rotate(-98.96)"> </text><text class="cls-2" transform="translate(-276.89 157.95) rotate(-96.79)"> </text><text class="cls-2" transform="translate(-277.5 153.5) rotate(-93.01)">C</text><text class="cls-2" transform="translate(-278.05 142.63) rotate(-87.48)">R</text><text class="cls-2" transform="matrix(0.14, -0.99, 0.99, 0.14, -277.5, 131.47)">E</text><text class="cls-2" transform="translate(-276.09 121.34) rotate(-76.82)">A</text><text class="cls-2" transform="translate(-273.73 111.39) rotate(-72.29)">T</text><text class="cls-2" transform="translate(-271 103.07) rotate(-68.87)">I</text><text class="cls-2" transform="translate(-269.22 98.29) rotate(-65.05)">V</text><text class="cls-2" transform="translate(-264.77 88.96) rotate(-61.22)">I</text><text class="cls-2" transform="matrix(0.53, -0.85, 0.85, 0.53, -262.37, 84.5)">T</text><text class="cls-2" transform="matrix(0.6, -0.8, 0.8, 0.6, -257.59, 76.89)">Y</text><circle class="cls-4" cx="143.04" cy="142.4" r="97.42" transform="translate(-43.26 220.06) rotate(-67.5)"/><path class="cls-5" d="M143,55.52A86.88,86.88,0,1,1,56.16,142.4,86.88,86.88,0,0,1,143,55.52m0-21.07a108,108,0,1,0,76.34,31.62A107.25,107.25,0,0,0,143,34.45Z"/><text class="cls-6" transform="translate(136.35 49.71) rotate(-2.64)">1</text><text class="cls-6" transform="translate(141.47 49.48) rotate(0.54)">0</text><text class="cls-6" transform="matrix(1, 0.07, -0.07, 1, 146.6, 49.54)">0</text><text class="cls-6" transform="translate(151.67 49.9) rotate(6.09)">	</text><text class="cls-6" transform="matrix(0.94, 0.34, -0.34, 0.94, 173.49, 54.64)">	</text><text class="cls-6" transform="translate(205.75 73.85) rotate(43.13)">	</text><text class="cls-6" transform="matrix(0.39, 0.92, -0.92, 0.39, 227.79, 104.29)">1</text><text class="cls-6" transform="translate(229.79 109.06) rotate(70.72)">0</text><text class="cls-6" transform="translate(231.48 113.88) rotate(73.58)">0</text><text class="cls-6" transform="translate(232.88 118.75) rotate(75.91)">	</text><text class="cls-6" transform="translate(235.95 140.88) rotate(89.79)">	</text><text class="cls-6" transform="translate(228.95 177.76) rotate(113.11)">	</text><text class="cls-6" transform="translate(207.98 208.85) rotate(136.36)"> </text><text class="cls-6" transform="translate(206.15 210.63) rotate(138.74)">1</text><text class="cls-6" transform="matrix(-0.79, 0.62, -0.62, -0.79, 202.28, 214.02)">0</text><text class="cls-6" transform="translate(198.23 217.18) rotate(145.12)">0</text><text class="cls-6" transform="matrix(-0.84, 0.54, -0.54, -0.84, 194.04, 220.07)">	</text><text class="cls-6" transform="matrix(-0.93, 0.36, -0.36, -0.93, 176.45, 229.06)">	</text><text class="cls-6" transform="translate(139.33 235.24) rotate(-176.95)">	</text><text class="cls-6" transform="translate(102.93 226.18) rotate(-153.69)"> </text><text class="cls-6" transform="translate(100.71 225.08) rotate(-152.17)"> </text><text class="cls-6" transform="matrix(-0.86, -0.5, 0.5, -0.86, 98.44, 223.9)">1</text><text class="cls-6" transform="translate(94.01 221.32) rotate(-146.68)">0</text><text class="cls-6" transform="translate(89.72 218.5) rotate(-143.52)">0</text><text class="cls-6" transform="translate(85.65 215.45) rotate(-141.17)">	</text><text class="cls-6" transform="matrix(-0.65, -0.76, 0.76, -0.65, 73.02, 203.46)">	</text><text class="cls-6" transform="translate(54.6 170.77) rotate(-107.1)">	</text><text class="cls-6" transform="translate(50.58 133.45) rotate(-83.7)"> </text><text class="cls-6" transform="translate(50.85 130.99) rotate(-82.17)"> </text><text class="cls-6" transform="translate(51.19 128.56) rotate(-80.65)"> </text><text class="cls-6" transform="translate(51.59 126.1) rotate(-79.12)"> </text><text class="cls-6" transform="translate(52.06 123.66) rotate(-77.58)"> </text><text class="cls-6" transform="matrix(0.25, -0.97, 0.97, 0.25, 52.59, 121.18)">1</text><text class="cls-6" transform="translate(53.9 116.22) rotate(-72.09)">0</text><text class="cls-6" transform="matrix(0.36, -0.93, 0.93, 0.36, 55.49, 111.31)">0</text><polygon class="cls-7" points="143.04 58.52 63.16 116.56 93.67 210.47 192.41 210.47 222.93 116.56 143.04 58.52"/><polygon class="cls-7" points="143.04 73.72 79.13 120.15 103.54 195.28 182.54 195.28 206.95 120.15 143.04 73.72"/><polygon class="cls-7" points="143.04 88.91 95.11 123.74 113.42 180.09 172.66 180.09 190.97 123.74 143.04 88.91"/><polygon class="cls-7" points="143.04 104.11 111.09 127.33 123.29 164.89 162.79 164.89 175 127.33 143.04 104.11"/><polygon class="cls-7" points="143.04 119.3 127.06 130.91 133.17 149.69 152.92 149.69 159.02 130.91 143.04 119.3"/><path class="cls-8" d="M143,37.54A104.87,104.87,0,1,1,38.18,142.4,104.87,104.87,0,0,1,143,37.54M143,3.2A139.21,139.21,0,0,0,44.61,240.84,139.21,139.21,0,0,0,241.48,44,138.32,138.32,0,0,0,143,3.2Z"/><text class="cls-2" transform="translate(117.92 30.01) rotate(-10.34)">F</text><text class="cls-2" transform="translate(127.73 28.19) rotate(-4.73)">O</text><text class="cls-2" transform="matrix(1, 0.02, -0.02, 1, 140.14, 27.25)">C</text><text class="cls-2" transform="translate(150.99 27.48) rotate(6.69)">U</text><text class="cls-2" transform="translate(162.39 28.87) rotate(12.25)">S</text><text class="cls-2" transform="matrix(0.96, 0.28, -0.28, 0.96, 172.77, 31.24)">	</text><text class="cls-2" transform="translate(210.88 49.46) rotate(37.09)"> </text><text class="cls-2" transform="matrix(0.77, 0.63, -0.63, 0.77, 214.28, 52.03)"> </text><text class="cls-2" transform="translate(217.6 54.75) rotate(41.36)"> </text><text class="cls-2" transform="translate(220.82 57.59) rotate(43.5)"> </text><text class="cls-2" transform="matrix(0.7, 0.72, -0.72, 0.7, 223.91, 60.54)"> </text><text class="cls-2" transform="matrix(0.67, 0.74, -0.74, 0.67, 226.91, 63.61)"> </text><text class="cls-2" transform="translate(229.8 66.79) rotate(50.11)">I</text><text class="cls-2" transform="translate(233.17 70.68) rotate(54.22)">N</text><text class="cls-2" transform="matrix(0.51, 0.86, -0.86, 0.51, 239.79, 80.01)">T</text><text class="cls-2" transform="translate(244.34 87.7) rotate(64.06)">E</text><text class="cls-2" transform="translate(248.81 96.89) rotate(69.36)">N</text><text class="cls-2" transform="translate(252.76 107.6) rotate(74.41)">T</text><text class="cls-2" transform="matrix(0.21, 0.98, -0.98, 0.21, 255.05, 116.07)">I</text><text class="cls-2" transform="translate(256.25 121.11) rotate(82.23)">O</text><text class="cls-2" transform="translate(257.86 133.47) rotate(88.25)">N</text><text class="cls-2" transform="matrix(-0.04, 1, -1, -0.04, 258.08, 144.72)">	</text><text class="cls-2" transform="translate(251.56 180.57) rotate(110.38)"> </text><text class="cls-2" transform="translate(250.07 184.56) rotate(112.49)"> </text><text class="cls-2" transform="translate(248.43 188.51) rotate(114.61)"> </text><text class="cls-2" transform="translate(246.65 192.39) rotate(116.72)"> </text><text class="cls-2" transform="translate(244.71 196.22) rotate(118.85)"> </text><text class="cls-2" transform="translate(242.63 199.98) rotate(120.99)"> </text><text class="cls-2" transform="translate(240.42 203.65) rotate(123.11)"> </text><text class="cls-2" transform="translate(238.09 207.22) rotate(125.24)"> </text><text class="cls-2" transform="matrix(-0.61, 0.79, -0.79, -0.61, 235.61, 210.71)"> </text><text class="cls-2" transform="translate(232.95 214.36) rotate(131.3)">D</text><text class="cls-2" transform="translate(225.33 222.97) rotate(136.99)">R</text><text class="cls-2" transform="translate(217.2 230.38) rotate(141.04)">I</text><text class="cls-2" transform="translate(213.26 233.66) rotate(144.91)">V</text><text class="cls-2" transform="translate(204.64 239.67) rotate(150.08)">E</text><text class="cls-2" transform="matrix(-0.9, 0.44, -0.44, -0.9, 195.92, 244.57)">	</text><text class="cls-2" transform="matrix(-0.93, 0.36, -0.36, -0.93, 185.77, 249.21)">	</text><text class="cls-2" transform="translate(137.81 257.35) rotate(-176.37)"> </text><text class="cls-2" transform="matrix(-0.99, -0.1, 0.1, -0.99, 133.51, 257.07)"> </text><text class="cls-3" transform="translate(129.03 256.7) rotate(-170.52)">D</text><text class="cls-3" transform="translate(118.68 254.92) rotate(-165.58)">E</text><text class="cls-3" transform="translate(109.66 252.55) rotate(-161.24)">T</text><text class="cls-3" transform="translate(101.9 249.92) rotate(-156.91)">E</text><text class="cls-3" transform="translate(93.29 246.24) rotate(-152.06)">R</text><text class="cls-3" transform="translate(84.12 241.41) rotate(-146.22)">M</text><text class="cls-3" transform="matrix(-0.79, -0.62, 0.62, -0.79, 73.42, 234.04)">I</text><text class="cls-3" transform="translate(69.67 231.18) rotate(-138.02)">N</text><text class="cls-3" transform="translate(61.84 224.08) rotate(-132.8)">A</text><text class="cls-3" transform="translate(55.47 217.15) rotate(-128.57)">T</text><text class="cls-3" transform="translate(50.51 210.84) rotate(-125.4)">I</text><text class="cls-3" transform="translate(47.69 207.04) rotate(-121.42)">O</text><text class="cls-3" transform="translate(41.78 197.25) rotate(-115.96)">N</text><text class="cls-2" transform="translate(37.35 187.91) rotate(-112.33)">	</text><text class="cls-2" transform="translate(31.45 170.56) rotate(-103.23)"> </text><text class="cls-2" transform="matrix(-0.19, -0.98, 0.98, -0.19, 30.48, 166.41)"> </text><text class="cls-2" transform="translate(29.66 162.2) rotate(-98.96)"> </text><text class="cls-2" transform="translate(28.99 157.95) rotate(-96.79)"> </text><text class="cls-2" transform="translate(28.38 153.5) rotate(-93.01)">C</text><text class="cls-2" transform="translate(27.83 142.63) rotate(-87.48)">R</text><text class="cls-2" transform="matrix(0.14, -0.99, 0.99, 0.14, 28.38, 131.47)">E</text><text class="cls-2" transform="translate(29.79 121.34) rotate(-76.82)">A</text><text class="cls-2" transform="translate(32.15 111.39) rotate(-72.29)">T</text><text class="cls-2" transform="translate(34.88 103.07) rotate(-68.87)">I</text><text class="cls-2" transform="translate(36.66 98.29) rotate(-65.05)">V</text><text class="cls-2" transform="translate(41.11 88.96) rotate(-61.22)">I</text><text class="cls-2" transform="matrix(0.53, -0.85, 0.85, 0.53, 43.51, 84.5)">T</text><text class="cls-2" transform="matrix(0.6, -0.8, 0.8, 0.6, 48.29, 76.89)">Y</text><line class="cls-9" x1="242.08" y1="171.9" x2="276.37" y2="182.37"/><line class="cls-9" x1="43.83" y1="171.93" x2="9.61" y2="182.09"/><line class="cls-9" x1="204.11" y1="59.52" x2="225.6" y2="30.34"/><line class="cls-9" x1="144.93" y1="245.9" x2="146.04" y2="281.51"/><line class="cls-9" x1="80.89" y1="59.16" x2="59.17" y2="31.34"/><polygon class="cls-10" points="142.89 78.78 87.99 122.78 99.1 202.33 167 170.78 214.85 119.3 142.89 78.78"/><polygon class="cls-11" points="143.04 98.04 109.77 126.48 117.77 172.7 156.33 156.56 190.97 123.74 143.04 98.04"/></g></g></svg>