<?xml version="1.0" encoding="UTF-8"?><svg xmlns="http://www.w3.org/2000/svg" viewBox="0 0 285.78 285.22"><defs><style>.cls-1{font-size:9px;}.cls-1,.cls-2,.cls-3{font-family:A750SansBold, A750-Sans;}.cls-1,.cls-2,.cls-3,.cls-4{fill:#231f20;}.cls-5{fill:#fff;}.cls-6{stroke:#e6e7e8;stroke-width:.75px;}.cls-6,.cls-7{fill:none;stroke-miterlimit:10;}.cls-8{isolation:isolate;}.cls-2{font-size:14px;}.cls-3{font-size:15.26px;}.cls-9{fill:#39b54a;opacity:.68;}.cls-9,.cls-4{mix-blend-mode:multiply;}.cls-10{fill:#c49a6c;}.cls-7{stroke:#c2b59b;stroke-width:4px;}.cls-11{fill:#c2b59b;}.cls-4{opacity:.44;}</style></defs><g class="cls-8"><g id="Layer_1"><g><text class="cls-3" transform="translate(-187.81 30.01) rotate(-10.34)"><tspan x="0" y="0">F</tspan></text><text class="cls-3" transform="translate(-178 28.19) rotate(-4.73)"><tspan x="0" y="0">O</tspan></text><text class="cls-3" transform="translate(-165.59 27.25) rotate(1.12)"><tspan x="0" y="0">C</tspan></text><text class="cls-3" transform="translate(-154.74 27.48) rotate(6.69)"><tspan x="0" y="0">U</tspan></text><text class="cls-3" transform="translate(-143.34 28.87) rotate(12.25)"><tspan x="0" y="0">S</tspan></text><text class="cls-3" transform="translate(-132.96 31.24) rotate(16.01)"><tspan x="0" y="0">	</tspan></text><text class="cls-3" transform="translate(-94.84 49.46) rotate(37.09)"><tspan x="0" y="0"> </tspan></text><text class="cls-3" transform="translate(-91.45 52.03) rotate(39.21)"><tspan x="0" y="0"> </tspan></text><text class="cls-3" transform="translate(-88.13 54.75) rotate(41.36)"><tspan x="0" y="0"> </tspan></text><text class="cls-3" transform="translate(-84.91 57.59) rotate(43.5)"><tspan x="0" y="0"> </tspan></text><text class="cls-3" transform="translate(-81.81 60.54) rotate(45.65)"><tspan x="0" y="0"> </tspan></text><text class="cls-3" transform="translate(-78.82 63.61) rotate(47.8)"><tspan x="0" y="0"> </tspan></text><text class="cls-3" transform="translate(-75.93 66.79) rotate(50.11)"><tspan x="0" y="0">I</tspan></text><text class="cls-3" transform="translate(-72.56 70.68) rotate(54.22)"><tspan x="0" y="0">N</tspan></text><text class="cls-3" transform="translate(-65.94 80.01) rotate(59.33)"><tspan x="0" y="0">T</tspan></text><text class="cls-3" transform="translate(-61.39 87.7) rotate(64.06)"><tspan x="0" y="0">E</tspan></text><text class="cls-3" transform="translate(-56.92 96.89) rotate(69.36)"><tspan x="0" y="0">N</tspan></text><text class="cls-3" transform="translate(-52.97 107.6) rotate(74.41)"><tspan x="0" y="0">T</tspan></text><text class="cls-3" transform="translate(-50.68 116.07) rotate(77.87)"><tspan x="0" y="0">I</tspan></text><text class="cls-3" transform="translate(-49.48 121.11) rotate(82.23)"><tspan x="0" y="0">O</tspan></text><text class="cls-3" transform="translate(-47.86 133.47) rotate(88.25)"><tspan x="0" y="0">N</tspan></text><text class="cls-3" transform="translate(-47.65 144.72) rotate(92.19)"><tspan x="0" y="0">	</tspan></text><text class="cls-3" transform="translate(-54.17 180.57) rotate(110.38)"><tspan x="0" y="0"> </tspan></text><text class="cls-3" transform="translate(-55.66 184.56) rotate(112.49)"><tspan x="0" y="0"> </tspan></text><text class="cls-3" transform="translate(-57.3 188.51) rotate(114.61)"><tspan x="0" y="0"> </tspan></text><text class="cls-3" transform="translate(-59.08 192.39) rotate(116.72)"><tspan x="0" y="0"> </tspan></text><text class="cls-3" transform="translate(-61.02 196.22) rotate(118.85)"><tspan x="0" y="0"> </tspan></text><text class="cls-3" transform="translate(-63.1 199.98) rotate(120.99)"><tspan x="0" y="0"> </tspan></text><text class="cls-3" transform="translate(-65.31 203.65) rotate(123.11)"><tspan x="0" y="0"> </tspan></text><text class="cls-3" transform="translate(-67.64 207.22) rotate(125.24)"><tspan x="0" y="0"> </tspan></text><text class="cls-3" transform="translate(-70.11 210.71) rotate(127.37)"><tspan x="0" y="0"> </tspan></text><text class="cls-3" transform="translate(-72.78 214.36) rotate(131.3)"><tspan x="0" y="0">D</tspan></text><text class="cls-3" transform="translate(-80.4 222.97) rotate(136.99)"><tspan x="0" y="0">R</tspan></text><text class="cls-3" transform="translate(-88.53 230.38) rotate(141.04)"><tspan x="0" y="0">I</tspan></text><text class="cls-3" transform="translate(-92.47 233.66) rotate(144.91)"><tspan x="0" y="0">V</tspan></text><text class="cls-3" transform="translate(-101.09 239.67) rotate(150.08)"><tspan x="0" y="0">E</tspan></text><text class="cls-3" transform="translate(-109.81 244.57) rotate(153.67)"><tspan x="0" y="0">	</tspan></text><text class="cls-3" transform="translate(-119.96 249.21) rotate(159.14)"><tspan x="0" y="0">	</tspan></text><text class="cls-3" transform="translate(-167.92 257.35) rotate(-176.37)"><tspan x="0" y="0"> </tspan></text><text class="cls-3" transform="translate(-172.22 257.07) rotate(-174.22)"><tspan x="0" y="0"> </tspan></text><text class="cls-2" transform="translate(-176.7 256.7) rotate(-170.52)"><tspan x="0" y="0">D</tspan></text><text class="cls-2" transform="translate(-187.05 254.92) rotate(-165.58)"><tspan x="0" y="0">E</tspan></text><text class="cls-2" transform="translate(-196.07 252.55) rotate(-161.24)"><tspan x="0" y="0">T</tspan></text><text class="cls-2" transform="translate(-203.83 249.92) rotate(-156.91)"><tspan x="0" y="0">E</tspan></text><text class="cls-2" transform="translate(-212.44 246.24) rotate(-152.06)"><tspan x="0" y="0">R</tspan></text><text class="cls-2" transform="translate(-221.61 241.41) rotate(-146.22)"><tspan x="0" y="0">M</tspan></text><text class="cls-2" transform="translate(-232.3 234.04) rotate(-141.79)"><tspan x="0" y="0">I</tspan></text><text class="cls-2" transform="translate(-236.06 231.18) rotate(-138.02)"><tspan x="0" y="0">N</tspan></text><text class="cls-2" transform="translate(-243.89 224.08) rotate(-132.8)"><tspan x="0" y="0">A</tspan></text><text class="cls-2" transform="translate(-250.26 217.15) rotate(-128.57)"><tspan x="0" y="0">T</tspan></text><text class="cls-2" transform="translate(-255.22 210.84) rotate(-125.4)"><tspan x="0" y="0">I</tspan></text><text class="cls-2" transform="translate(-258.04 207.04) rotate(-121.42)"><tspan x="0" y="0">O</tspan></text><text class="cls-2" transform="translate(-263.95 197.25) rotate(-115.96)"><tspan x="0" y="0">N</tspan></text><text class="cls-3" transform="translate(-268.38 187.91) rotate(-112.33)"><tspan x="0" y="0">	</tspan></text><text class="cls-3" transform="translate(-274.28 170.56) rotate(-103.23)"><tspan x="0" y="0"> </tspan></text><text class="cls-3" transform="translate(-275.25 166.41) rotate(-101.1)"><tspan x="0" y="0"> </tspan></text><text class="cls-3" transform="translate(-276.07 162.2) rotate(-98.96)"><tspan x="0" y="0"> </tspan></text><text class="cls-3" transform="translate(-276.74 157.95) rotate(-96.79)"><tspan x="0" y="0"> </tspan></text><text class="cls-3" transform="translate(-277.35 153.5) rotate(-93.01)"><tspan x="0" y="0">C</tspan></text><text class="cls-3" transform="translate(-277.9 142.63) rotate(-87.48)"><tspan x="0" y="0">R</tspan></text><text class="cls-3" transform="translate(-277.35 131.47) rotate(-82.14)"><tspan x="0" y="0">E</tspan></text><text class="cls-3" transform="translate(-275.94 121.34) rotate(-76.82)"><tspan x="0" y="0">A</tspan></text><text class="cls-3" transform="translate(-273.57 111.39) rotate(-72.29)"><tspan x="0" y="0">T</tspan></text><text class="cls-3" transform="translate(-270.85 103.07) rotate(-68.87)"><tspan x="0" y="0">I</tspan></text><text class="cls-3" transform="translate(-269.07 98.29) rotate(-65.05)"><tspan x="0" y="0">V</tspan></text><text class="cls-3" transform="translate(-264.62 88.96) rotate(-61.22)"><tspan x="0" y="0">I</tspan></text><text class="cls-3" transform="translate(-262.22 84.5) rotate(-57.79)"><tspan x="0" y="0">T</tspan></text><text class="cls-3" transform="translate(-257.44 76.89) rotate(-52.78)"><tspan x="0" y="0">Y</tspan></text></g><g><circle class="cls-5" cx="142.94" cy="142.4" r="97.42"/><path class="cls-11" d="M142.94,55.52c47.98,0,86.88,38.9,86.88,86.88s-38.9,86.88-86.88,86.88-86.88-38.9-86.88-86.88S94.96,55.52,142.94,55.52m0-21.08c-28.84,0-55.95,11.23-76.34,31.62-20.39,20.39-31.62,47.5-31.62,76.34s11.23,55.95,31.62,76.34c20.39,20.39,47.5,31.62,76.34,31.62s55.95-11.23,76.34-31.62c20.39-20.39,31.62-47.5,31.62-76.34s-11.23-55.95-31.62-76.34c-20.39-20.39-47.5-31.62-76.34-31.62h0Z"/></g><text class="cls-1" transform="translate(136.25 49.71) rotate(-2.64)"><tspan x="0" y="0">1</tspan></text><text class="cls-1" transform="translate(141.37 49.48) rotate(.54)"><tspan x="0" y="0">0</tspan></text><text class="cls-1" transform="translate(146.5 49.54) rotate(3.73)"><tspan x="0" y="0">0</tspan></text><text class="cls-1" transform="translate(151.56 49.9) rotate(6.09)"><tspan x="0" y="0">	</tspan></text><text class="cls-1" transform="translate(173.39 54.64) rotate(19.88)"><tspan x="0" y="0">	</tspan></text><text class="cls-1" transform="translate(205.65 73.85) rotate(43.13)"><tspan x="0" y="0">	</tspan></text><text class="cls-1" transform="translate(227.69 104.29) rotate(67.33)"><tspan x="0" y="0">1</tspan></text><text class="cls-1" transform="translate(229.68 109.06) rotate(70.72)"><tspan x="0" y="0">0</tspan></text><text class="cls-1" transform="translate(231.38 113.88) rotate(73.58)"><tspan x="0" y="0">0</tspan></text><text class="cls-1" transform="translate(232.78 118.75) rotate(75.91)"><tspan x="0" y="0">	</tspan></text><text class="cls-1" transform="translate(235.85 140.88) rotate(89.79)"><tspan x="0" y="0">	</tspan></text><text class="cls-1" transform="translate(228.85 177.76) rotate(113.11)"><tspan x="0" y="0">	</tspan></text><text class="cls-1" transform="translate(207.88 208.85) rotate(136.36)"><tspan x="0" y="0"> </tspan></text><text class="cls-1" transform="translate(206.05 210.63) rotate(138.74)"><tspan x="0" y="0">1</tspan></text><text class="cls-1" transform="translate(202.18 214.02) rotate(141.93)"><tspan x="0" y="0">0</tspan></text><text class="cls-1" transform="translate(198.13 217.18) rotate(145.12)"><tspan x="0" y="0">0</tspan></text><text class="cls-1" transform="translate(193.94 220.07) rotate(147.49)"><tspan x="0" y="0">	</tspan></text><text class="cls-1" transform="translate(176.35 229.06) rotate(158.87)"><tspan x="0" y="0">	</tspan></text><text class="cls-1" transform="translate(139.22 235.24) rotate(-176.95)"><tspan x="0" y="0">	</tspan></text><text class="cls-1" transform="translate(102.83 226.18) rotate(-153.69)"><tspan x="0" y="0"> </tspan></text><text class="cls-1" transform="translate(100.61 225.08) rotate(-152.17)"><tspan x="0" y="0"> </tspan></text><text class="cls-1" transform="translate(98.33 223.9) rotate(-149.82)"><tspan x="0" y="0">1</tspan></text><text class="cls-1" transform="translate(93.91 221.32) rotate(-146.68)"><tspan x="0" y="0">0</tspan></text><text class="cls-1" transform="translate(89.62 218.5) rotate(-143.52)"><tspan x="0" y="0">0</tspan></text><text class="cls-1" transform="translate(85.55 215.45) rotate(-141.17)"><tspan x="0" y="0">	</tspan></text><text class="cls-1" transform="translate(72.91 203.46) rotate(-130.36)"><tspan x="0" y="0">	</tspan></text><text class="cls-1" transform="translate(54.5 170.77) rotate(-107.1)"><tspan x="0" y="0">	</tspan></text><text class="cls-1" transform="translate(50.47 133.45) rotate(-83.7)"><tspan x="0" y="0"> </tspan></text><text class="cls-1" transform="translate(50.75 130.99) rotate(-82.17)"><tspan x="0" y="0"> </tspan></text><text class="cls-1" transform="translate(51.08 128.56) rotate(-80.65)"><tspan x="0" y="0"> </tspan></text><text class="cls-1" transform="translate(51.49 126.1) rotate(-79.12)"><tspan x="0" y="0"> </tspan></text><text class="cls-1" transform="translate(51.96 123.66) rotate(-77.58)"><tspan x="0" y="0"> </tspan></text><text class="cls-1" transform="translate(52.48 121.18) rotate(-75.24)"><tspan x="0" y="0">1</tspan></text><text class="cls-1" transform="translate(53.8 116.22) rotate(-72.09)"><tspan x="0" y="0">0</tspan></text><text class="cls-1" transform="translate(55.39 111.31) rotate(-68.92)"><tspan x="0" y="0">0</tspan></text><polygon class="cls-6" points="142.94 58.52 63.05 116.56 93.57 210.48 192.31 210.48 222.83 116.56 142.94 58.52"/><polygon class="cls-6" points="142.94 73.72 79.03 120.15 103.44 195.28 182.44 195.28 206.85 120.15 142.94 73.72"/><polygon class="cls-6" points="142.94 88.91 95.01 123.74 113.32 180.08 172.56 180.08 190.87 123.74 142.94 88.91"/><polygon class="cls-6" points="142.94 104.11 110.99 127.32 123.19 164.89 162.69 164.89 174.89 127.32 142.94 104.11"/><polygon class="cls-6" points="142.94 119.3 126.96 130.91 133.07 149.69 152.81 149.69 158.92 130.91 142.94 119.3"/><g><path class="cls-10" d="M142.94,37.54c57.91,0,104.86,46.95,104.86,104.86s-46.95,104.86-104.86,104.86-104.86-46.95-104.86-104.86S85.03,37.54,142.94,37.54m0-34.34c-37.18,0-72.14,14.48-98.43,40.77C18.21,70.26,3.73,105.22,3.73,142.4s14.48,72.14,40.77,98.43c26.29,26.29,61.25,40.77,98.43,40.77s72.14-14.48,98.43-40.77c26.29-26.29,40.77-61.25,40.77-98.43s-14.48-72.14-40.77-98.43C215.08,17.68,180.12,3.2,142.94,3.2h0Z"/><text class="cls-3" transform="translate(117.82 30.01) rotate(-10.34)"><tspan x="0" y="0">F</tspan></text><text class="cls-3" transform="translate(127.63 28.19) rotate(-4.73)"><tspan x="0" y="0">O</tspan></text><text class="cls-3" transform="translate(140.04 27.25) rotate(1.12)"><tspan x="0" y="0">C</tspan></text><text class="cls-3" transform="translate(150.89 27.48) rotate(6.69)"><tspan x="0" y="0">U</tspan></text><text class="cls-3" transform="translate(162.29 28.87) rotate(12.25)"><tspan x="0" y="0">S</tspan></text><text class="cls-3" transform="translate(172.67 31.24) rotate(16.01)"><tspan x="0" y="0">	</tspan></text><text class="cls-3" transform="translate(210.78 49.46) rotate(37.09)"><tspan x="0" y="0"> </tspan></text><text class="cls-3" transform="translate(214.18 52.03) rotate(39.21)"><tspan x="0" y="0"> </tspan></text><text class="cls-3" transform="translate(217.5 54.75) rotate(41.36)"><tspan x="0" y="0"> </tspan></text><text class="cls-3" transform="translate(220.71 57.59) rotate(43.5)"><tspan x="0" y="0"> </tspan></text><text class="cls-3" transform="translate(223.81 60.54) rotate(45.65)"><tspan x="0" y="0"> </tspan></text><text class="cls-3" transform="translate(226.81 63.61) rotate(47.8)"><tspan x="0" y="0"> </tspan></text><text class="cls-3" transform="translate(229.7 66.79) rotate(50.11)"><tspan x="0" y="0">I</tspan></text><text class="cls-3" transform="translate(233.07 70.68) rotate(54.22)"><tspan x="0" y="0">N</tspan></text><text class="cls-3" transform="translate(239.68 80.01) rotate(59.33)"><tspan x="0" y="0">T</tspan></text><text class="cls-3" transform="translate(244.24 87.7) rotate(64.06)"><tspan x="0" y="0">E</tspan></text><text class="cls-3" transform="translate(248.71 96.89) rotate(69.36)"><tspan x="0" y="0">N</tspan></text><text class="cls-3" transform="translate(252.65 107.6) rotate(74.41)"><tspan x="0" y="0">T</tspan></text><text class="cls-3" transform="translate(254.94 116.07) rotate(77.87)"><tspan x="0" y="0">I</tspan></text><text class="cls-3" transform="translate(256.14 121.11) rotate(82.23)"><tspan x="0" y="0">O</tspan></text><text class="cls-3" transform="translate(257.76 133.47) rotate(88.25)"><tspan x="0" y="0">N</tspan></text><text class="cls-3" transform="translate(257.97 144.72) rotate(92.19)"><tspan x="0" y="0">	</tspan></text><text class="cls-3" transform="translate(251.45 180.57) rotate(110.38)"><tspan x="0" y="0"> </tspan></text><text class="cls-3" transform="translate(249.96 184.56) rotate(112.49)"><tspan x="0" y="0"> </tspan></text><text class="cls-3" transform="translate(248.33 188.51) rotate(114.61)"><tspan x="0" y="0"> </tspan></text><text class="cls-3" transform="translate(246.54 192.39) rotate(116.72)"><tspan x="0" y="0"> </tspan></text><text class="cls-3" transform="translate(244.61 196.22) rotate(118.85)"><tspan x="0" y="0"> </tspan></text><text class="cls-3" transform="translate(242.53 199.98) rotate(120.99)"><tspan x="0" y="0"> </tspan></text><text class="cls-3" transform="translate(240.32 203.65) rotate(123.11)"><tspan x="0" y="0"> </tspan></text><text class="cls-3" transform="translate(237.98 207.22) rotate(125.24)"><tspan x="0" y="0"> </tspan></text><text class="cls-3" transform="translate(235.51 210.71) rotate(127.37)"><tspan x="0" y="0"> </tspan></text><text class="cls-3" transform="translate(232.85 214.36) rotate(131.3)"><tspan x="0" y="0">D</tspan></text><text class="cls-3" transform="translate(225.22 222.97) rotate(136.99)"><tspan x="0" y="0">R</tspan></text><text class="cls-3" transform="translate(217.1 230.38) rotate(141.04)"><tspan x="0" y="0">I</tspan></text><text class="cls-3" transform="translate(213.16 233.66) rotate(144.91)"><tspan x="0" y="0">V</tspan></text><text class="cls-3" transform="translate(204.54 239.67) rotate(150.08)"><tspan x="0" y="0">E</tspan></text><text class="cls-3" transform="translate(195.82 244.57) rotate(153.67)"><tspan x="0" y="0">	</tspan></text><text class="cls-3" transform="translate(185.67 249.21) rotate(159.14)"><tspan x="0" y="0">	</tspan></text><text class="cls-3" transform="translate(137.71 257.35) rotate(-176.37)"><tspan x="0" y="0"> </tspan></text><text class="cls-3" transform="translate(133.41 257.07) rotate(-174.22)"><tspan x="0" y="0"> </tspan></text><text class="cls-2" transform="translate(128.93 256.7) rotate(-170.52)"><tspan x="0" y="0">D</tspan></text><text class="cls-2" transform="translate(118.57 254.92) rotate(-165.58)"><tspan x="0" y="0">E</tspan></text><text class="cls-2" transform="translate(109.56 252.55) rotate(-161.24)"><tspan x="0" y="0">T</tspan></text><text class="cls-2" transform="translate(101.8 249.92) rotate(-156.91)"><tspan x="0" y="0">E</tspan></text><text class="cls-2" transform="translate(93.18 246.24) rotate(-152.06)"><tspan x="0" y="0">R</tspan></text><text class="cls-2" transform="translate(84.02 241.41) rotate(-146.22)"><tspan x="0" y="0">M</tspan></text><text class="cls-2" transform="translate(73.32 234.04) rotate(-141.79)"><tspan x="0" y="0">I</tspan></text><text class="cls-2" transform="translate(69.56 231.18) rotate(-138.02)"><tspan x="0" y="0">N</tspan></text><text class="cls-2" transform="translate(61.74 224.08) rotate(-132.8)"><tspan x="0" y="0">A</tspan></text><text class="cls-2" transform="translate(55.37 217.15) rotate(-128.57)"><tspan x="0" y="0">T</tspan></text><text class="cls-2" transform="translate(50.4 210.84) rotate(-125.4)"><tspan x="0" y="0">I</tspan></text><text class="cls-2" transform="translate(47.59 207.04) rotate(-121.42)"><tspan x="0" y="0">O</tspan></text><text class="cls-2" transform="translate(41.67 197.25) rotate(-115.96)"><tspan x="0" y="0">N</tspan></text><text class="cls-3" transform="translate(37.25 187.91) rotate(-112.33)"><tspan x="0" y="0">	</tspan></text><text class="cls-3" transform="translate(31.35 170.56) rotate(-103.23)"><tspan x="0" y="0"> </tspan></text><text class="cls-3" transform="translate(30.37 166.41) rotate(-101.1)"><tspan x="0" y="0"> </tspan></text><text class="cls-3" transform="translate(29.55 162.2) rotate(-98.96)"><tspan x="0" y="0"> </tspan></text><text class="cls-3" transform="translate(28.89 157.95) rotate(-96.79)"><tspan x="0" y="0"> </tspan></text><text class="cls-3" transform="translate(28.27 153.5) rotate(-93.01)"><tspan x="0" y="0">C</tspan></text><text class="cls-3" transform="translate(27.73 142.63) rotate(-87.48)"><tspan x="0" y="0">R</tspan></text><text class="cls-3" transform="translate(28.28 131.47) rotate(-82.14)"><tspan x="0" y="0">E</tspan></text><text class="cls-3" transform="translate(29.69 121.34) rotate(-76.82)"><tspan x="0" y="0">A</tspan></text><text class="cls-3" transform="translate(32.05 111.39) rotate(-72.29)"><tspan x="0" y="0">T</tspan></text><text class="cls-3" transform="translate(34.78 103.07) rotate(-68.87)"><tspan x="0" y="0">I</tspan></text><text class="cls-3" transform="translate(36.55 98.29) rotate(-65.05)"><tspan x="0" y="0">V</tspan></text><text class="cls-3" transform="translate(41.01 88.96) rotate(-61.22)"><tspan x="0" y="0">I</tspan></text><text class="cls-3" transform="translate(43.41 84.5) rotate(-57.79)"><tspan x="0" y="0">T</tspan></text><text class="cls-3" transform="translate(48.19 76.89) rotate(-52.78)"><tspan x="0" y="0">Y</tspan></text></g><line class="cls-7" x1="241.97" y1="171.9" x2="276.27" y2="182.37"/><line class="cls-7" x1="43.73" y1="171.93" x2="9.51" y2="182.09"/><line class="cls-7" x1="204" y1="59.52" x2="225.49" y2="30.34"/><line class="cls-7" x1="144.83" y1="245.9" x2="145.94" y2="281.51"/><line class="cls-7" x1="80.79" y1="59.16" x2="59.07" y2="31.34"/><polygon class="cls-9" points="142.94 91 87.67 122.56 100.11 199.67 184.11 198.11 214.56 119.3 142.94 91"/><polygon class="cls-4" points="142.89 105.67 116.33 129 119.46 172.11 168.56 173.44 194.11 122.56 142.89 105.67"/><g><text class="cls-3" transform="translate(423.6 30.01) rotate(-10.34)"><tspan x="0" y="0">F</tspan></text><text class="cls-3" transform="translate(433.4 28.19) rotate(-4.73)"><tspan x="0" y="0">O</tspan></text><text class="cls-3" transform="translate(445.82 27.25) rotate(1.12)"><tspan x="0" y="0">C</tspan></text><text class="cls-3" transform="translate(456.67 27.48) rotate(6.69)"><tspan x="0" y="0">U</tspan></text><text class="cls-3" transform="translate(468.07 28.87) rotate(12.25)"><tspan x="0" y="0">S</tspan></text><text class="cls-3" transform="translate(478.45 31.24) rotate(16.01)"><tspan x="0" y="0">	</tspan></text><text class="cls-3" transform="translate(516.56 49.46) rotate(37.09)"><tspan x="0" y="0"> </tspan></text><text class="cls-3" transform="translate(519.96 52.03) rotate(39.21)"><tspan x="0" y="0"> </tspan></text><text class="cls-3" transform="translate(523.28 54.75) rotate(41.36)"><tspan x="0" y="0"> </tspan></text><text class="cls-3" transform="translate(526.49 57.59) rotate(43.5)"><tspan x="0" y="0"> </tspan></text><text class="cls-3" transform="translate(529.59 60.54) rotate(45.65)"><tspan x="0" y="0"> </tspan></text><text class="cls-3" transform="translate(532.59 63.61) rotate(47.8)"><tspan x="0" y="0"> </tspan></text><text class="cls-3" transform="translate(535.48 66.79) rotate(50.11)"><tspan x="0" y="0">I</tspan></text><text class="cls-3" transform="translate(538.84 70.68) rotate(54.22)"><tspan x="0" y="0">N</tspan></text><text class="cls-3" transform="translate(545.46 80.01) rotate(59.33)"><tspan x="0" y="0">T</tspan></text><text class="cls-3" transform="translate(550.02 87.7) rotate(64.06)"><tspan x="0" y="0">E</tspan></text><text class="cls-3" transform="translate(554.48 96.89) rotate(69.36)"><tspan x="0" y="0">N</tspan></text><text class="cls-3" transform="translate(558.43 107.6) rotate(74.41)"><tspan x="0" y="0">T</tspan></text><text class="cls-3" transform="translate(560.72 116.07) rotate(77.87)"><tspan x="0" y="0">I</tspan></text><text class="cls-3" transform="translate(561.92 121.11) rotate(82.23)"><tspan x="0" y="0">O</tspan></text><text class="cls-3" transform="translate(563.54 133.47) rotate(88.25)"><tspan x="0" y="0">N</tspan></text><text class="cls-3" transform="translate(563.75 144.72) rotate(92.19)"><tspan x="0" y="0">	</tspan></text><text class="cls-3" transform="translate(557.23 180.57) rotate(110.38)"><tspan x="0" y="0"> </tspan></text><text class="cls-3" transform="translate(555.74 184.56) rotate(112.49)"><tspan x="0" y="0"> </tspan></text><text class="cls-3" transform="translate(554.1 188.51) rotate(114.61)"><tspan x="0" y="0"> </tspan></text><text class="cls-3" transform="translate(552.32 192.39) rotate(116.72)"><tspan x="0" y="0"> </tspan></text><text class="cls-3" transform="translate(550.39 196.22) rotate(118.85)"><tspan x="0" y="0"> </tspan></text><text class="cls-3" transform="translate(548.31 199.98) rotate(120.99)"><tspan x="0" y="0"> </tspan></text><text class="cls-3" transform="translate(546.1 203.65) rotate(123.11)"><tspan x="0" y="0"> </tspan></text><text class="cls-3" transform="translate(543.76 207.22) rotate(125.24)"><tspan x="0" y="0"> </tspan></text><text class="cls-3" transform="translate(541.29 210.71) rotate(127.37)"><tspan x="0" y="0"> </tspan></text><text class="cls-3" transform="translate(538.63 214.36) rotate(131.3)"><tspan x="0" y="0">D</tspan></text><text class="cls-3" transform="translate(531 222.97) rotate(136.99)"><tspan x="0" y="0">R</tspan></text><text class="cls-3" transform="translate(522.88 230.38) rotate(141.04)"><tspan x="0" y="0">I</tspan></text><text class="cls-3" transform="translate(518.94 233.66) rotate(144.91)"><tspan x="0" y="0">V</tspan></text><text class="cls-3" transform="translate(510.32 239.67) rotate(150.08)"><tspan x="0" y="0">E</tspan></text><text class="cls-3" transform="translate(501.6 244.57) rotate(153.67)"><tspan x="0" y="0">	</tspan></text><text class="cls-3" transform="translate(491.45 249.21) rotate(159.14)"><tspan x="0" y="0">	</tspan></text><text class="cls-3" transform="translate(443.49 257.35) rotate(-176.37)"><tspan x="0" y="0"> </tspan></text><text class="cls-3" transform="translate(439.19 257.07) rotate(-174.22)"><tspan x="0" y="0"> </tspan></text><text class="cls-2" transform="translate(434.71 256.7) rotate(-170.52)"><tspan x="0" y="0">D</tspan></text><text class="cls-2" transform="translate(424.35 254.92) rotate(-165.58)"><tspan x="0" y="0">E</tspan></text><text class="cls-2" transform="translate(415.34 252.55) rotate(-161.24)"><tspan x="0" y="0">T</tspan></text><text class="cls-2" transform="translate(407.58 249.92) rotate(-156.91)"><tspan x="0" y="0">E</tspan></text><text class="cls-2" transform="translate(398.96 246.24) rotate(-152.06)"><tspan x="0" y="0">R</tspan></text><text class="cls-2" transform="translate(389.79 241.41) rotate(-146.22)"><tspan x="0" y="0">M</tspan></text><text class="cls-2" transform="translate(379.1 234.04) rotate(-141.79)"><tspan x="0" y="0">I</tspan></text><text class="cls-2" transform="translate(375.34 231.18) rotate(-138.02)"><tspan x="0" y="0">N</tspan></text><text class="cls-2" transform="translate(367.52 224.08) rotate(-132.8)"><tspan x="0" y="0">A</tspan></text><text class="cls-2" transform="translate(361.14 217.15) rotate(-128.57)"><tspan x="0" y="0">T</tspan></text><text class="cls-2" transform="translate(356.18 210.84) rotate(-125.4)"><tspan x="0" y="0">I</tspan></text><text class="cls-2" transform="translate(353.37 207.04) rotate(-121.42)"><tspan x="0" y="0">O</tspan></text><text class="cls-2" transform="translate(347.45 197.25) rotate(-115.96)"><tspan x="0" y="0">N</tspan></text><text class="cls-3" transform="translate(343.03 187.91) rotate(-112.33)"><tspan x="0" y="0">	</tspan></text><text class="cls-3" transform="translate(337.12 170.56) rotate(-103.23)"><tspan x="0" y="0"> </tspan></text><text class="cls-3" transform="translate(336.15 166.41) rotate(-101.1)"><tspan x="0" y="0"> </tspan></text><text class="cls-3" transform="translate(335.33 162.2) rotate(-98.96)"><tspan x="0" y="0"> </tspan></text><text class="cls-3" transform="translate(334.67 157.95) rotate(-96.79)"><tspan x="0" y="0"> </tspan></text><text class="cls-3" transform="translate(334.05 153.5) rotate(-93.01)"><tspan x="0" y="0">C</tspan></text><text class="cls-3" transform="translate(333.51 142.63) rotate(-87.48)"><tspan x="0" y="0">R</tspan></text><text class="cls-3" transform="translate(334.06 131.47) rotate(-82.14)"><tspan x="0" y="0">E</tspan></text><text class="cls-3" transform="translate(335.47 121.34) rotate(-76.82)"><tspan x="0" y="0">A</tspan></text><text class="cls-3" transform="translate(337.83 111.39) rotate(-72.29)"><tspan x="0" y="0">T</tspan></text><text class="cls-3" transform="translate(340.56 103.07) rotate(-68.87)"><tspan x="0" y="0">I</tspan></text><text class="cls-3" transform="translate(342.33 98.29) rotate(-65.05)"><tspan x="0" y="0">V</tspan></text><text class="cls-3" transform="translate(346.79 88.96) rotate(-61.22)"><tspan x="0" y="0">I</tspan></text><text class="cls-3" transform="translate(349.19 84.5) rotate(-57.79)"><tspan x="0" y="0">T</tspan></text><text class="cls-3" transform="translate(353.96 76.89) rotate(-52.78)"><tspan x="0" y="0">Y</tspan></text></g></g></g></svg>