<?xml version="1.0" encoding="UTF-8"?><svg xmlns="http://www.w3.org/2000/svg" viewBox="0 0 285.78 285.22"><defs><style>.cls-1{font-size:9px;}.cls-1,.cls-2,.cls-3{font-family:A750SansBold, A750-Sans;}.cls-1,.cls-2,.cls-3,.cls-4{fill:#231f20;}.cls-5{fill:#fff;}.cls-6{stroke:#e6e7e8;stroke-width:.75px;}.cls-6,.cls-7{fill:none;stroke-miterlimit:10;}.cls-8{isolation:isolate;}.cls-2{font-size:14px;}.cls-3{font-size:15.26px;}.cls-9{fill:#39b54a;opacity:.68;}.cls-9,.cls-4{mix-blend-mode:multiply;}.cls-10{fill:#c49a6c;}.cls-7{stroke:#c2b59b;stroke-width:4px;}.cls-11{fill:#c2b59b;}.cls-4{opacity:.44;}</style></defs><g class="cls-8"><g id="Layer_1"><g><circle class="cls-5" cx="143.09" cy="142.4" r="97.42"/><path class="cls-11" d="M143.09,55.52c47.98,0,86.88,38.9,86.88,86.88s-38.9,86.88-86.88,86.88-86.88-38.9-86.88-86.88S95.11,55.52,143.09,55.52m0-21.08c-28.84,0-55.95,11.23-76.34,31.62-20.39,20.39-31.62,47.5-31.62,76.34s11.23,55.95,31.62,76.34c20.39,20.39,47.5,31.62,76.34,31.62s55.95-11.23,76.34-31.62c20.39-20.39,31.62-47.5,31.62-76.34s-11.23-55.95-31.62-76.34c-20.39-20.39-47.5-31.62-76.34-31.62h0Z"/></g><text class="cls-1" transform="translate(136.4 49.71) rotate(-2.64)"><tspan x="0" y="0">1</tspan></text><text class="cls-1" transform="translate(141.52 49.48) rotate(.54)"><tspan x="0" y="0">0</tspan></text><text class="cls-1" transform="translate(146.65 49.54) rotate(3.73)"><tspan x="0" y="0">0</tspan></text><text class="cls-1" transform="translate(151.72 49.9) rotate(6.09)"><tspan x="0" y="0">	</tspan></text><text class="cls-1" transform="translate(173.54 54.64) rotate(19.88)"><tspan x="0" y="0">	</tspan></text><text class="cls-1" transform="translate(205.8 73.85) rotate(43.13)"><tspan x="0" y="0">	</tspan></text><text class="cls-1" transform="translate(227.84 104.29) rotate(67.33)"><tspan x="0" y="0">1</tspan></text><text class="cls-1" transform="translate(229.83 109.06) rotate(70.72)"><tspan x="0" y="0">0</tspan></text><text class="cls-1" transform="translate(231.53 113.88) rotate(73.58)"><tspan x="0" y="0">0</tspan></text><text class="cls-1" transform="translate(232.93 118.75) rotate(75.91)"><tspan x="0" y="0">	</tspan></text><text class="cls-1" transform="translate(236 140.88) rotate(89.79)"><tspan x="0" y="0">	</tspan></text><text class="cls-1" transform="translate(229 177.76) rotate(113.11)"><tspan x="0" y="0">	</tspan></text><text class="cls-1" transform="translate(208.03 208.85) rotate(136.36)"><tspan x="0" y="0"> </tspan></text><text class="cls-1" transform="translate(206.2 210.63) rotate(138.74)"><tspan x="0" y="0">1</tspan></text><text class="cls-1" transform="translate(202.33 214.02) rotate(141.93)"><tspan x="0" y="0">0</tspan></text><text class="cls-1" transform="translate(198.28 217.18) rotate(145.12)"><tspan x="0" y="0">0</tspan></text><text class="cls-1" transform="translate(194.09 220.07) rotate(147.49)"><tspan x="0" y="0">	</tspan></text><text class="cls-1" transform="translate(176.5 229.06) rotate(158.87)"><tspan x="0" y="0">	</tspan></text><text class="cls-1" transform="translate(139.38 235.24) rotate(-176.95)"><tspan x="0" y="0">	</tspan></text><text class="cls-1" transform="translate(102.98 226.18) rotate(-153.69)"><tspan x="0" y="0"> </tspan></text><text class="cls-1" transform="translate(100.76 225.08) rotate(-152.17)"><tspan x="0" y="0"> </tspan></text><text class="cls-1" transform="translate(98.48 223.9) rotate(-149.82)"><tspan x="0" y="0">1</tspan></text><text class="cls-1" transform="translate(94.06 221.32) rotate(-146.68)"><tspan x="0" y="0">0</tspan></text><text class="cls-1" transform="translate(89.77 218.5) rotate(-143.52)"><tspan x="0" y="0">0</tspan></text><text class="cls-1" transform="translate(85.7 215.45) rotate(-141.17)"><tspan x="0" y="0">	</tspan></text><text class="cls-1" transform="translate(73.07 203.46) rotate(-130.36)"><tspan x="0" y="0">	</tspan></text><text class="cls-1" transform="translate(54.65 170.77) rotate(-107.1)"><tspan x="0" y="0">	</tspan></text><text class="cls-1" transform="translate(50.62 133.45) rotate(-83.7)"><tspan x="0" y="0"> </tspan></text><text class="cls-1" transform="translate(50.9 130.99) rotate(-82.17)"><tspan x="0" y="0"> </tspan></text><text class="cls-1" transform="translate(51.23 128.56) rotate(-80.65)"><tspan x="0" y="0"> </tspan></text><text class="cls-1" transform="translate(51.64 126.1) rotate(-79.12)"><tspan x="0" y="0"> </tspan></text><text class="cls-1" transform="translate(52.11 123.66) rotate(-77.58)"><tspan x="0" y="0"> </tspan></text><text class="cls-1" transform="translate(52.63 121.18) rotate(-75.24)"><tspan x="0" y="0">1</tspan></text><text class="cls-1" transform="translate(53.95 116.22) rotate(-72.09)"><tspan x="0" y="0">0</tspan></text><text class="cls-1" transform="translate(55.54 111.31) rotate(-68.92)"><tspan x="0" y="0">0</tspan></text><polygon class="cls-6" points="143.09 58.52 63.21 116.56 93.72 210.48 192.46 210.48 222.98 116.56 143.09 58.52"/><polygon class="cls-6" points="143.09 73.72 79.18 120.15 103.59 195.28 182.59 195.28 207 120.15 143.09 73.72"/><polygon class="cls-6" points="143.09 88.91 95.16 123.74 113.47 180.08 172.71 180.08 191.02 123.74 143.09 88.91"/><polygon class="cls-6" points="143.09 104.11 111.14 127.32 123.34 164.89 162.84 164.89 175.05 127.32 143.09 104.11"/><polygon class="cls-6" points="143.09 119.3 127.11 130.91 133.22 149.69 152.97 149.69 159.07 130.91 143.09 119.3"/><g><path class="cls-10" d="M143.09,37.54c57.91,0,104.86,46.95,104.86,104.86s-46.95,104.86-104.86,104.86-104.86-46.95-104.86-104.86S85.18,37.54,143.09,37.54m0-34.34c-37.18,0-72.14,14.48-98.43,40.77C18.36,70.26,3.89,105.22,3.89,142.4s14.48,72.14,40.77,98.43c26.29,26.29,61.25,40.77,98.43,40.77s72.14-14.48,98.43-40.77c26.29-26.29,40.77-61.25,40.77-98.43s-14.48-72.14-40.77-98.43C215.23,17.68,180.27,3.2,143.09,3.2h0Z"/><text class="cls-3" transform="translate(117.97 30.01) rotate(-10.34)"><tspan x="0" y="0">F</tspan></text><text class="cls-3" transform="translate(127.78 28.19) rotate(-4.73)"><tspan x="0" y="0">O</tspan></text><text class="cls-3" transform="translate(140.19 27.25) rotate(1.12)"><tspan x="0" y="0">C</tspan></text><text class="cls-3" transform="translate(151.04 27.48) rotate(6.69)"><tspan x="0" y="0">U</tspan></text><text class="cls-3" transform="translate(162.44 28.87) rotate(12.25)"><tspan x="0" y="0">S</tspan></text><text class="cls-3" transform="translate(172.82 31.24) rotate(16.01)"><tspan x="0" y="0">	</tspan></text><text class="cls-3" transform="translate(210.93 49.46) rotate(37.09)"><tspan x="0" y="0"> </tspan></text><text class="cls-3" transform="translate(214.33 52.03) rotate(39.21)"><tspan x="0" y="0"> </tspan></text><text class="cls-3" transform="translate(217.65 54.75) rotate(41.36)"><tspan x="0" y="0"> </tspan></text><text class="cls-3" transform="translate(220.87 57.59) rotate(43.5)"><tspan x="0" y="0"> </tspan></text><text class="cls-3" transform="translate(223.96 60.54) rotate(45.65)"><tspan x="0" y="0"> </tspan></text><text class="cls-3" transform="translate(226.96 63.61) rotate(47.8)"><tspan x="0" y="0"> </tspan></text><text class="cls-3" transform="translate(229.85 66.79) rotate(50.11)"><tspan x="0" y="0">I</tspan></text><text class="cls-3" transform="translate(233.22 70.68) rotate(54.22)"><tspan x="0" y="0">N</tspan></text><text class="cls-3" transform="translate(239.83 80.01) rotate(59.33)"><tspan x="0" y="0">T</tspan></text><text class="cls-3" transform="translate(244.39 87.7) rotate(64.06)"><tspan x="0" y="0">E</tspan></text><text class="cls-3" transform="translate(248.86 96.89) rotate(69.36)"><tspan x="0" y="0">N</tspan></text><text class="cls-3" transform="translate(252.81 107.6) rotate(74.41)"><tspan x="0" y="0">T</tspan></text><text class="cls-3" transform="translate(255.1 116.07) rotate(77.87)"><tspan x="0" y="0">I</tspan></text><text class="cls-3" transform="translate(256.29 121.11) rotate(82.23)"><tspan x="0" y="0">O</tspan></text><text class="cls-3" transform="translate(257.91 133.47) rotate(88.25)"><tspan x="0" y="0">N</tspan></text><text class="cls-3" transform="translate(258.12 144.72) rotate(92.19)"><tspan x="0" y="0">	</tspan></text><text class="cls-3" transform="translate(251.61 180.57) rotate(110.38)"><tspan x="0" y="0"> </tspan></text><text class="cls-3" transform="translate(250.11 184.56) rotate(112.49)"><tspan x="0" y="0"> </tspan></text><text class="cls-3" transform="translate(248.48 188.51) rotate(114.61)"><tspan x="0" y="0"> </tspan></text><text class="cls-3" transform="translate(246.69 192.39) rotate(116.72)"><tspan x="0" y="0"> </tspan></text><text class="cls-3" transform="translate(244.76 196.22) rotate(118.85)"><tspan x="0" y="0"> </tspan></text><text class="cls-3" transform="translate(242.68 199.98) rotate(120.99)"><tspan x="0" y="0"> </tspan></text><text class="cls-3" transform="translate(240.47 203.65) rotate(123.11)"><tspan x="0" y="0"> </tspan></text><text class="cls-3" transform="translate(238.13 207.22) rotate(125.24)"><tspan x="0" y="0"> </tspan></text><text class="cls-3" transform="translate(235.66 210.71) rotate(127.37)"><tspan x="0" y="0"> </tspan></text><text class="cls-3" transform="translate(233 214.36) rotate(131.3)"><tspan x="0" y="0">D</tspan></text><text class="cls-3" transform="translate(225.37 222.97) rotate(136.99)"><tspan x="0" y="0">R</tspan></text><text class="cls-3" transform="translate(217.25 230.38) rotate(141.04)"><tspan x="0" y="0">I</tspan></text><text class="cls-3" transform="translate(213.31 233.66) rotate(144.91)"><tspan x="0" y="0">V</tspan></text><text class="cls-3" transform="translate(204.69 239.67) rotate(150.08)"><tspan x="0" y="0">E</tspan></text><text class="cls-3" transform="translate(195.97 244.57) rotate(153.67)"><tspan x="0" y="0">	</tspan></text><text class="cls-3" transform="translate(185.82 249.21) rotate(159.14)"><tspan x="0" y="0">	</tspan></text><text class="cls-3" transform="translate(137.86 257.35) rotate(-176.37)"><tspan x="0" y="0"> </tspan></text><text class="cls-3" transform="translate(133.56 257.07) rotate(-174.22)"><tspan x="0" y="0"> </tspan></text><text class="cls-2" transform="translate(129.08 256.7) rotate(-170.52)"><tspan x="0" y="0">D</tspan></text><text class="cls-2" transform="translate(118.72 254.92) rotate(-165.58)"><tspan x="0" y="0">E</tspan></text><text class="cls-2" transform="translate(109.71 252.55) rotate(-161.24)"><tspan x="0" y="0">T</tspan></text><text class="cls-2" transform="translate(101.95 249.92) rotate(-156.91)"><tspan x="0" y="0">E</tspan></text><text class="cls-2" transform="translate(93.34 246.24) rotate(-152.06)"><tspan x="0" y="0">R</tspan></text><text class="cls-2" transform="translate(84.17 241.41) rotate(-146.22)"><tspan x="0" y="0">M</tspan></text><text class="cls-2" transform="translate(73.47 234.04) rotate(-141.79)"><tspan x="0" y="0">I</tspan></text><text class="cls-2" transform="translate(69.71 231.18) rotate(-138.02)"><tspan x="0" y="0">N</tspan></text><text class="cls-2" transform="translate(61.89 224.08) rotate(-132.8)"><tspan x="0" y="0">A</tspan></text><text class="cls-2" transform="translate(55.52 217.15) rotate(-128.57)"><tspan x="0" y="0">T</tspan></text><text class="cls-2" transform="translate(50.55 210.84) rotate(-125.4)"><tspan x="0" y="0">I</tspan></text><text class="cls-2" transform="translate(47.74 207.04) rotate(-121.42)"><tspan x="0" y="0">O</tspan></text><text class="cls-2" transform="translate(41.83 197.25) rotate(-115.96)"><tspan x="0" y="0">N</tspan></text><text class="cls-3" transform="translate(37.4 187.91) rotate(-112.33)"><tspan x="0" y="0">	</tspan></text><text class="cls-3" transform="translate(31.5 170.56) rotate(-103.23)"><tspan x="0" y="0"> </tspan></text><text class="cls-3" transform="translate(30.53 166.41) rotate(-101.1)"><tspan x="0" y="0"> </tspan></text><text class="cls-3" transform="translate(29.71 162.2) rotate(-98.96)"><tspan x="0" y="0"> </tspan></text><text class="cls-3" transform="translate(29.04 157.95) rotate(-96.79)"><tspan x="0" y="0"> </tspan></text><text class="cls-3" transform="translate(28.43 153.5) rotate(-93.01)"><tspan x="0" y="0">C</tspan></text><text class="cls-3" transform="translate(27.88 142.63) rotate(-87.48)"><tspan x="0" y="0">R</tspan></text><text class="cls-3" transform="translate(28.43 131.47) rotate(-82.14)"><tspan x="0" y="0">E</tspan></text><text class="cls-3" transform="translate(29.84 121.34) rotate(-76.82)"><tspan x="0" y="0">A</tspan></text><text class="cls-3" transform="translate(32.2 111.39) rotate(-72.29)"><tspan x="0" y="0">T</tspan></text><text class="cls-3" transform="translate(34.93 103.07) rotate(-68.87)"><tspan x="0" y="0">I</tspan></text><text class="cls-3" transform="translate(36.71 98.29) rotate(-65.05)"><tspan x="0" y="0">V</tspan></text><text class="cls-3" transform="translate(41.16 88.96) rotate(-61.22)"><tspan x="0" y="0">I</tspan></text><text class="cls-3" transform="translate(43.56 84.5) rotate(-57.79)"><tspan x="0" y="0">T</tspan></text><text class="cls-3" transform="translate(48.34 76.89) rotate(-52.78)"><tspan x="0" y="0">Y</tspan></text></g><line class="cls-7" x1="242.13" y1="171.9" x2="276.42" y2="182.37"/><line class="cls-7" x1="43.88" y1="171.93" x2="9.66" y2="182.09"/><line class="cls-7" x1="204.15" y1="59.52" x2="225.64" y2="30.34"/><line class="cls-7" x1="144.98" y1="245.9" x2="146.09" y2="281.51"/><line class="cls-7" x1="80.94" y1="59.16" x2="59.22" y2="31.34"/><polygon class="cls-9" points="141.83 72.05 88.42 122.42 106.2 191.75 186.94 201.08 199.23 122.27 141.83 72.05"/><polygon class="cls-4" points="143.09 88.91 119.61 130.12 122.57 166.56 175.05 182.27 178.87 126.27 143.09 88.91"/></g></g></svg>